<svg xmlns="http://www.w3.org/2000/svg" width="50" height="50.511" viewBox="0 0 50 50.511">
  <g id="Group_28019" data-name="Group 28019" transform="translate(-0.166)">
    <rect id="Rectangle_11993" data-name="Rectangle 11993" width="50" height="50" transform="translate(0.166 0.129)" fill="#19aaed" opacity="0"/>
    <g id="Group_28010" data-name="Group 28010" transform="translate(2.731)">
      <path id="Path_104" data-name="Path 104" d="M306.633,0a2.166,2.166,0,0,1,1.5,2.462c-.039.361.183.427.443.521q10.7,3.829,21.407,7.663a2.063,2.063,0,0,1,1.631,1.865,1.963,1.963,0,0,1-1.494,2.059c-1.852.668-3.708,1.326-5.561,1.99q-7.969,2.855-15.942,5.7a.61.61,0,0,0-.489.7c.02,2.366.01,4.733.01,7.1V30.6c.328,0,.6.009.876,0a3.254,3.254,0,0,1,3.314,1.769,3.193,3.193,0,0,1-.5,3.692,3.332,3.332,0,0,1,.011,4.487,3.323,3.323,0,0,1-1.083,5.242,3.626,3.626,0,0,1,.234,2.241,3.185,3.185,0,0,1-3.024,2.455c-3.122.023-6.246.052-9.368-.009a9.417,9.417,0,0,1-5.014-1.868c-1.062-.709-2.037-1.549-3.065-2.311a1.357,1.357,0,0,0-.651-.25c-.424-.04-.854,0-1.281-.016a1.951,1.951,0,0,1-2.011-2.04q-.015-5.3.018-10.6a1.836,1.836,0,0,1,1.941-1.97,3.253,3.253,0,0,0,2.792-1.276,13.773,13.773,0,0,1,10.049-4.3c.114,0,.228-.011.417-.019V16.669c0-.165-.007-.33.009-.492a.968.968,0,0,1,.854-.883.946.946,0,0,1,1.031.66,2.371,2.371,0,0,1,.076.679q.006,6.657,0,13.313v.618h2.366V2.008h-2.366V4.97c0,.707,0,1.414,0,2.12s-.4,1.174-.983,1.18-.985-.451-.986-1.162c0-1.512.05-3.027-.018-4.536A2.331,2.331,0,0,1,303.28,0ZM288.575,44.068c.607,0,1.2.022,1.781-.006a1.691,1.691,0,0,1,1.19.471c1.168.927,2.331,1.87,3.573,2.691a7.789,7.789,0,0,0,4.611,1.314c2.463-.069,4.93-.018,7.4-.018.28,0,.56.015.838-.011a1.245,1.245,0,0,0,1.131-1.063,1.223,1.223,0,0,0-.787-1.333,2.631,2.631,0,0,0-.776-.093c-.887-.012-1.776.011-2.662-.016a.967.967,0,0,1-.991-.958.978.978,0,0,1,1-.993c.394-.02.789-.008,1.183-.009,1.1,0,2.2.013,3.3-.006a1.228,1.228,0,0,0,1.33-1.405,1.252,1.252,0,0,0-1.349-1.1q-2.218-.015-4.437,0a1,1,0,0,1-1.03-.608c-.3-.693.2-1.359,1.042-1.364,1.5-.01,2.991,0,4.487-.006a1.221,1.221,0,0,0,1.282-1.441A1.207,1.207,0,0,0,309.4,37.07c-1.463-.011-2.925,0-4.388-.006a1.057,1.057,0,0,1-1.131-.691A.979.979,0,0,1,304.9,35.1c1.479-.012,2.959.006,4.437-.008a1.255,1.255,0,0,0,1.341-1.532,1.283,1.283,0,0,0-1.4-.984c-2.087-.006-4.175,0-6.262,0-.9,0-1.224-.324-1.227-1.21,0-1.019,0-2.038,0-3.057v-.479a11.894,11.894,0,0,0-3.78.488,12.488,12.488,0,0,0-6.191,4.186,1.963,1.963,0,0,1-1.846.858c-.45-.045-.909-.008-1.4-.008ZM329.5,12.69c0-.038,0-.076,0-.114L308.182,4.939V20.33L329.5,12.69" transform="translate(-286.569)" fill="#19aaed"/>
      <path id="Path_105" data-name="Path 105" d="M309.073,15.3a.974.974,0,1,1,.008,1.947.974.974,0,0,1-.008-1.947" transform="translate(-292.89 -4.489)" fill="#19aaed"/>
    </g>
  </g>
</svg>
