<svg xmlns="http://www.w3.org/2000/svg" width="50" height="50.511" viewBox="0 0 50 50.511">
  <g id="Group_28020" data-name="Group 28020" transform="translate(-0.166 0)">
    <rect id="Rectangle_11993" data-name="Rectangle 11993" width="50" height="50" transform="translate(0.166 0.129)" fill="#19aaed" opacity="0"/>
    <g id="Group_28007" data-name="Group 28007" transform="translate(3.548)">
      <path id="Path_64" data-name="Path 64" d="M27.135,0a7.248,7.248,0,0,1,.993.413A2.858,2.858,0,0,1,29.6,2.984c.013,1.61,0,3.221,0,4.91H42.121c.974,0,1.3.324,1.3,1.305V41.008c0,1-.316,1.315-1.335,1.315H29.6v1.5c0,1.2,0,2.4,0,3.6a2.957,2.957,0,0,1-3.063,3.088q-11.74.007-23.479,0A2.947,2.947,0,0,1,0,47.465Q0,25.249,0,3.032A2.936,2.936,0,0,1,2.243.094,2.272,2.272,0,0,0,2.468,0h8.19c.585.4.784.777.654,1.239-.146.516-.528.733-1.292.733H3.41c-1.16,0-1.436.272-1.436,1.411V47.128c0,.148-.006.3,0,.443a.954.954,0,0,0,.939.956c2.02.018,4.04.007,6.09.007-.025-.16-.041-.286-.065-.411a2.929,2.929,0,0,1,2.752-3.517c2.07-.044,4.143-.033,6.214,0a2.826,2.826,0,0,1,2.706,2.255,9.032,9.032,0,0,1,.017,1.675c2.015,0,4.035.012,6.054-.008a.956.956,0,0,0,.94-1.055c.011-1.085,0-2.17,0-3.255V42.324H7.309c-1.09,0-1.388-.292-1.388-1.361V9.253c0-1.054.3-1.359,1.34-1.359H27.629V3.435c0-1.192-.264-1.46-1.437-1.46q-3.4,0-6.806,0A1.009,1.009,0,0,1,18.258.948,1.183,1.183,0,0,1,18.946,0ZM7.915,40.315H41.4V9.894H7.915Zm6.9,6.251c-.951,0-1.9-.006-2.854,0a.992.992,0,1,0,.013,1.969q2.83.007,5.659,0a.992.992,0,1,0-.014-1.969c-.935-.006-1.87,0-2.8,0" transform="translate(0 -0.002)" fill="#19aaed"/>
      <path id="Path_65" data-name="Path 65" d="M20.833,0c.078.054.158.107.235.164a.934.934,0,0,1,.4,1.109.976.976,0,0,1-1.867,0,.936.936,0,0,1,.4-1.109c.077-.057.157-.11.235-.164Z" transform="translate(-5.735 -0.002)" fill="#19aaed"/>
      <path id="Path_66" data-name="Path 66" d="M22.5,7.557c-.623,0-1.246.008-1.869,0a.986.986,0,1,1-.019-1.967q1.893-.016,3.786,0a.986.986,0,1,1,.02,1.967c-.639.012-1.278,0-1.918,0" transform="translate(-5.737 -1.639)" fill="#19aaed"/>
      <path id="Path_67" data-name="Path 67" d="M14.949,5.591a.983.983,0,1,1-.979.962.994.994,0,0,1,.979-.962" transform="translate(-4.098 -1.642)" fill="#19aaed"/>
      <path id="Path_68" data-name="Path 68" d="M19.446,23.087c.182.045.3.081.42.1a4.962,4.962,0,0,1,3.96,4.618,1.018,1.018,0,0,1-1.144,1.2q-3.772.007-7.546,0c-.825,0-1.193-.4-1.163-1.232a4.957,4.957,0,0,1,3.94-4.585c.122-.025.245-.054.5-.113a3.194,3.194,0,0,1-2-1.345,2.869,2.869,0,0,1-.4-2.264,2.957,2.957,0,0,1,5.806.221c.251,1.473-.612,2.731-2.381,3.394m-3.3,3.927h5.484a2.849,2.849,0,0,0-2.647-1.946,2.905,2.905,0,0,0-2.836,1.946m3.734-6.864a.983.983,0,1,0-1.025.967,1,1,0,0,0,1.025-.967" transform="translate(-4.099 -5.04)" fill="#19aaed"/>
      <path id="Path_69" data-name="Path 69" d="M19.483,43.051c.389.109.755.187,1.1.312a4.933,4.933,0,0,1,3.241,4.421,1.017,1.017,0,0,1-1.156,1.191q-3.773.006-7.547,0a1.018,1.018,0,0,1-1.152-1.195,4.954,4.954,0,0,1,3.953-4.624c.122-.025.243-.059.416-.1-1.8-.724-2.636-1.959-2.361-3.439a2.957,2.957,0,0,1,5.828-.044c.3,1.5-.506,2.716-2.325,3.478m2.143,3.932a2.879,2.879,0,0,0-5.451,0ZM19.883,40.1a.983.983,0,1,0-1.012.979,1,1,0,0,0,1.012-.979" transform="translate(-4.099 -10.897)" fill="#19aaed"/>
      <path id="Path_70" data-name="Path 70" d="M39.646,19.965h7.49a3.457,3.457,0,0,1,.492.013.981.981,0,0,1,.01,1.943,3.258,3.258,0,0,1-.492.015H32.068c-.115,0-.23,0-.345,0a.984.984,0,1,1-.011-1.968c.147-.008.3,0,.443,0h7.49" transform="translate(-9.014 -5.858)" fill="#19aaed"/>
      <path id="Path_71" data-name="Path 71" d="M39.6,41.9q-3.868,0-7.736,0a1.027,1.027,0,0,1-1.105-.717.987.987,0,0,1,.808-1.239,3.253,3.253,0,0,1,.492-.014H47.138c.131,0,.264-.006.394,0a.992.992,0,0,1,.944.955.973.973,0,0,1-.942,1c-.591.026-1.183.009-1.774.009H39.6" transform="translate(-9.012 -11.715)" fill="#19aaed"/>
      <path id="Path_72" data-name="Path 72" d="M37.614,27.522c-1.905,0-3.809.013-5.714-.013a1.632,1.632,0,0,1-.89-.309.812.812,0,0,1-.23-.985.932.932,0,0,1,.892-.658c.623-.019,1.248-.008,1.872-.008H43.1c.148,0,.3-.006.443,0a.992.992,0,0,1,.983.967.977.977,0,0,1-1,1c-1.2.016-2.4.006-3.6.006H37.614" transform="translate(-9.009 -7.495)" fill="#19aaed"/>
      <path id="Path_73" data-name="Path 73" d="M37.593,47.487q-2.808,0-5.616,0c-.8,0-1.259-.371-1.251-1,.006-.611.459-.974,1.224-.974q5.69,0,11.38,0c.752,0,1.21.385,1.2,1s-.463.974-1.225.975q-2.858,0-5.715,0" transform="translate(-9.014 -13.353)" fill="#19aaed"/>
      <path id="Path_74" data-name="Path 74" d="M35.705,31.135c1.231,0,2.462,0,3.693,0,.724,0,1.172.37,1.186.962.016.611-.448,1.009-1.189,1.01q-3.742,0-7.484,0c-.741,0-1.2-.4-1.186-1.012.016-.592.463-.957,1.189-.96,1.263,0,2.528,0,3.791,0" transform="translate(-9.014 -9.135)" fill="#19aaed"/>
      <path id="Path_75" data-name="Path 75" d="M35.624,53.071c-1.247,0-2.494,0-3.742,0-.71,0-1.16-.4-1.156-.994s.452-.977,1.17-.977q3.766,0,7.533,0c.709,0,1.161.4,1.156.991s-.454.977-1.17.979c-1.263,0-2.528,0-3.791,0" transform="translate(-9.014 -14.991)" fill="#19aaed"/>
    </g>
  </g>
</svg>
