<svg xmlns="http://www.w3.org/2000/svg" width="50.417" height="50.511" viewBox="0 0 50.417 50.511">
  <g id="Group_28021" data-name="Group 28021" transform="translate(-0.047 0)">
    <rect id="Rectangle_11993" data-name="Rectangle 11993" width="50" height="50" transform="translate(0.166 0.129)" fill="#19aaed" opacity="0"/>
    <g id="Group_28014" data-name="Group 28014" transform="translate(0.047)">
      <path id="Path_76" data-name="Path 76" d="M685.74,28.633c.083-.365.153-.735.253-1.1a7.775,7.775,0,0,1,4.263-5.136l.429-.207c-.091-.115-.165-.215-.246-.309a8.339,8.339,0,0,1-1.786-8.543,8.331,8.331,0,0,1,6.613-5.763,8.588,8.588,0,0,1,9.147,4.363.729.729,0,0,0,.757.445q14.671-.015,29.342-.008c.148,0,.3,0,.444,0,.842.014,1.2.368,1.2,1.21q0,4.289,0,8.578v14c0,1.081-.281,1.358-1.378,1.358H703.366V56.359c0,.164.007.33-.008.493a.979.979,0,0,1-1.066.985q-5.449.008-10.9,0a.981.981,0,0,1-1.092-1.059q-.022-2.834,0-5.67a.988.988,0,0,1,1.02-1.082.97.97,0,0,1,.959,1.082c.012,1.38,0,2.761,0,4.142v.571h3.546v-.6q0-5.546,0-11.093c0-.889.343-1.367.984-1.38.66-.013,1.011.468,1.011,1.4q0,5.5,0,10.995v.678h3.515V39.388h-9.057v1.224c0,.8.008,1.611,0,2.415-.01.692-.392,1.1-.992,1.1a1,1,0,0,1-.989-1.115c-.011-1.033,0-2.066,0-3.075a8.9,8.9,0,0,1-1.722.082,3.167,3.167,0,0,1-2.735-2.432c-.027-.093-.065-.183-.1-.275Zm18.142-7.538h.664q4.165,0,8.333,0a7.567,7.567,0,0,1,.836.038,3.26,3.26,0,0,1-.705,6.478c-2.449.011-4.9,0-7.346,0a2.081,2.081,0,0,0-2.284,2.251c-.007,1.742,0,3.483,0,5.226,0,.14.021.281.032.421h30.734V14.4H705.338a8.913,8.913,0,0,1-1.456,6.7m-2.495,16.242c0-.231,0-.426,0-.619,0-2.416-.033-4.833.029-7.248a3.978,3.978,0,0,1,3.644-3.816c.408-.039.82-.042,1.231-.043,2.268,0,4.537,0,6.806,0a1.269,1.269,0,1,0-.008-2.518q-5.425-.01-10.851.005a1.73,1.73,0,0,0-.637.193c-.9.389-1.789.8-2.7,1.177-.325.134-.837.074-.993.294-.182.257-.076.724-.079,1.1-.007.921.014,1.842-.013,2.762a.966.966,0,0,1-.99,1.007.992.992,0,0,1-.991-1.014c-.011-.147,0-.3-.005-.443,0-1.036-.007-2.072,0-3.107,0-.273-.073-.388-.358-.466-.834-.229-1.653-.516-2.481-.772a1.089,1.089,0,0,0-.466-.07,5.56,5.56,0,0,0-4.7,4.847c-.174,2.75-.1,5.517-.1,8.276a1.172,1.172,0,0,0,.833,1.117,1.256,1.256,0,0,0,1.713-1.2c.022-1.5,0-2.991.015-4.487a2.065,2.065,0,0,1,.134-.765.945.945,0,0,1,1.072-.508.965.965,0,0,1,.77,1.009c.012,1.578.006,3.156.007,4.734v.557Zm-4.546-14.61a6.658,6.658,0,1,0-6.663-6.623,6.657,6.657,0,0,0,6.663,6.623" transform="translate(-685.74 -7.414)" fill="#19aaed"/>
      <path id="Path_77" data-name="Path 77" d="M713.083,67.194a2.459,2.459,0,0,1-1.852-2.816V61.373a5.044,5.044,0,0,1,2.52-4.883,5.322,5.322,0,0,1-.993-4.444A5.131,5.131,0,0,1,714.7,49a5.294,5.294,0,0,1,6.8.244,5.367,5.367,0,0,1,.674,7.232c.015.027.022.066.046.079a4.962,4.962,0,0,1,2.434,4.688c-.035,1.017-.056,2.039.006,3.053a2.567,2.567,0,0,1-1.8,2.9h-.888a3.9,3.9,0,0,0-1.981-.409q-2.116.054-4.235,0a3.335,3.335,0,0,0-1.775.409Zm7-2.415c0-.829,0-1.63,0-2.431a1,1,0,1,1,1.978.008c.005.773-.018,1.546.015,2.317.008.179.2.349.3.523.094-.164.268-.327.27-.493.021-1.347.026-2.7,0-4.042a2.757,2.757,0,0,0-1.893-2.567,1.187,1.187,0,0,0-.742.018,5.543,5.543,0,0,1-4.135,0,1.2,1.2,0,0,0-.744-.022,2.819,2.819,0,0,0-1.908,2.814c-.014,1.183-.011,2.367,0,3.549,0,.268-.138.705.285.716.447.012.287-.435.294-.7.022-.756-.008-1.513.02-2.267a.977.977,0,0,1,.955-1,1,1,0,0,1,1.02.989c.019.212.008.427.009.641,0,.637,0,1.274,0,1.939Zm1.191-11.586a3.329,3.329,0,1,0-3.312,3.341,3.345,3.345,0,0,0,3.312-3.341" transform="translate(-691.578 -16.682)" fill="#19aaed"/>
      <path id="Path_78" data-name="Path 78" d="M733.805,67.193a2.446,2.446,0,0,1-1.864-2.808c0-1.052.022-2.1,0-3.156a5.01,5.01,0,0,1,2.53-4.728,5.35,5.35,0,0,1-1.014-4.417,5.19,5.19,0,0,1,1.883-3.038,5.29,5.29,0,0,1,6.728.076c2.156,1.8,2.434,4.3.833,7.34a15.25,15.25,0,0,1,1.249,1.116,4.562,4.562,0,0,1,1.2,3.1c.013,1.348.007,2.7,0,4.044a2.273,2.273,0,0,1-1.671,2.385.5.5,0,0,0-.11.086h-.987a2.954,2.954,0,0,0-1.564-.41c-1.536.036-3.075.032-4.612,0a3.151,3.151,0,0,0-1.716.408Zm6.988-2.409c0-.846,0-1.633,0-2.419,0-.707.4-1.162.995-1.154s.981.466.986,1.174c.005.772-.015,1.544.015,2.315.006.168.177.33.271.494.1-.156.294-.31.3-.468.022-1.362.034-2.726,0-4.088a2.773,2.773,0,0,0-1.913-2.554,1.121,1.121,0,0,0-.7.015,5.523,5.523,0,0,1-4.176.009,1.176,1.176,0,0,0-.742-.012,2.824,2.824,0,0,0-1.9,2.769c-.014,1.248-.016,2.5.01,3.744,0,.2.176.549.288.556.362.024.274-.315.289-.546.009-.131,0-.263,0-.394,0-.657-.015-1.314.007-1.971a1,1,0,0,1,1.014-1.046.99.99,0,0,1,.966,1.038c.016.361,0,.722.005,1.084v1.452Zm-2.133-8.251a3.337,3.337,0,1,0-3.345-3.317,3.357,3.357,0,0,0,3.345,3.317" transform="translate(-696.32 -16.682)" fill="#19aaed"/>
      <path id="Path_79" data-name="Path 79" d="M693.657,58.622a1.012,1.012,0,0,1-1,1.012,1.06,1.06,0,0,1-1-1.026,1.023,1.023,0,0,1,1-1.011,1.044,1.044,0,0,1,1,1.025" transform="translate(-687.095 -18.908)" fill="#19aaed"/>
      <path id="Path_80" data-name="Path 80" d="M735.532,30.467q-2.762,0-5.524,0c-.991,0-1.3-.309-1.3-1.291q0-4.807,0-9.615c0-.96.31-1.267,1.27-1.267q5.623,0,11.245,0c.923,0,1.258.323,1.259,1.237q.007,4.857,0,9.714c0,.884-.342,1.22-1.228,1.223-1.907.005-3.814,0-5.721,0m-4.812-7.106h9.738V20.295H730.72Zm9.741,2.062h-9.735v3.041h9.735Z" transform="translate(-695.581 -9.905)" fill="#19aaed"/>
      <path id="Path_81" data-name="Path 81" d="M731.9,41.791c-2.679,0-5.357,0-8.035,0-.838,0-1.337-.666-1.037-1.36a.987.987,0,0,1,.978-.618c.722,0,1.445,0,2.169,0q6.925,0,13.85,0a1.855,1.855,0,0,1,.719.109.9.9,0,0,1,.545,1.047.907.907,0,0,1-.812.8,3.241,3.241,0,0,1-.541.018q-3.918,0-7.836,0" transform="translate(-694.214 -14.834)" fill="#19aaed"/>
      <path id="Path_82" data-name="Path 82" d="M735.266,35.929h5.764a3.869,3.869,0,0,1,.492.016.977.977,0,0,1,.23,1.869,1.884,1.884,0,0,1-.626.095q-5.839.008-11.677,0a2.894,2.894,0,0,1-.3-.007.985.985,0,0,1-.953-1.045.945.945,0,0,1,1-.927c2.021-.01,4.041,0,6.061,0Z" transform="translate(-695.465 -13.945)" fill="#19aaed"/>
      <path id="Path_83" data-name="Path 83" d="M723.08,36.9a.978.978,0,0,1,.991-1,1.025,1.025,0,0,1,1,1.018.994.994,0,1,1-1.987-.015" transform="translate(-694.292 -13.937)" fill="#19aaed"/>
    </g>
  </g>
</svg>
