<svg xmlns="http://www.w3.org/2000/svg" width="50" height="50.511" viewBox="0 0 50 50.511">
  <g id="Group_28018" data-name="Group 28018" transform="translate(-0.166 0)">
    <rect id="Rectangle_11993" data-name="Rectangle 11993" width="50" height="50" transform="translate(0.166 0.129)" fill="#19aaed" opacity="0"/>
    <g id="Group_28016" data-name="Group 28016" transform="translate(2.562)">
      <path id="Path_59" data-name="Path 59" d="M887.706.01a8.214,8.214,0,0,1,.966.338,3.593,3.593,0,0,1,2.211,3.24c.03.989-.142,1.983-.2,2.975a.543.543,0,0,0,.156.394,5.951,5.951,0,0,1,2.2,4.9c-.008.46.006.92,0,1.38a.981.981,0,0,1-1.062,1.084q-4.854.011-9.709,0a.931.931,0,0,1-1.045-.888,19.864,19.864,0,0,1,.141-3.14,5.5,5.5,0,0,1,2.27-3.508,7.029,7.029,0,0,1-.293-3.195A3.74,3.74,0,0,1,886.3.1a1.527,1.527,0,0,0,.221-.091Zm-4.517,12.312h7.824a3.892,3.892,0,0,0-1.7-3.976,3.9,3.9,0,0,1-4.435-.018,4.165,4.165,0,0,0-1.686,3.994m5.735-7.81h.041c-.015-.311-.008-.625-.048-.932a1.807,1.807,0,0,0-1.822-1.595,1.774,1.774,0,0,0-1.776,1.585,9.893,9.893,0,0,0-.006,1.864,1.761,1.761,0,0,0,1.8,1.612,1.781,1.781,0,0,0,1.809-1.6,7.583,7.583,0,0,0,.006-.932" transform="translate(-881.195 -0.01)" fill="#19aaed"/>
      <path id="Path_60" data-name="Path 60" d="M907.331,51.743H917.2v-.572q0-9.421,0-18.841a2.017,2.017,0,0,1,2.279-2.267h2.367A2.009,2.009,0,0,1,924.1,32.3q0,9.446,0,18.891v.593a2.994,2.994,0,0,1,2.39,2.32,2.953,2.953,0,0,1-2.689,3.573c-.131.008-.263.007-.394.007q-19.532,0-39.065,0a2.992,2.992,0,0,1-3.05-2.167,2.961,2.961,0,0,1,1.954-3.61c.122-.04.246-.073.4-.119v-.6q0-12.207,0-24.415a2.037,2.037,0,0,1,2.319-2.33c.838,0,1.677-.006,2.516,0a1.974,1.974,0,0,1,2.069,2.084q.01,4.119,0,8.237c0,.716-.385,1.173-.975,1.181s-1-.462-1-1.209q0-3.872,0-7.744v-.552h-2.925v25.3h2.925V51.22q0-3.477,0-6.955c0-.131,0-.264,0-.394a.97.97,0,0,1,.994-1,.953.953,0,0,1,.973,1.017c.011,1.956.005,3.913.005,5.87v1.983h9.865v-.568q0-5.5,0-11a2,2,0,0,1,2.228-2.22h2.318c1.618,0,2.359.734,2.359,2.337V51.743Zm-3.445,2H884.56a3.949,3.949,0,0,0-.541.013A.98.98,0,0,0,884,55.7a3.169,3.169,0,0,0,.492.016h38.751c.131,0,.263.006.394,0a.982.982,0,0,0,.017-1.963c-.163-.013-.328-.006-.493-.006H903.886M919.2,51.726h2.9V32.058h-2.9ZM905.324,39.967h-2.9V51.743h2.9Z" transform="translate(-881.188 -7.174)" fill="#19aaed"/>
      <path id="Path_61" data-name="Path 61" d="M934.568,22.268c-1.578,0-3.155,0-4.733,0-.816,0-1.2-.363-1.182-1.164a21.549,21.549,0,0,1,.173-2.941,5.26,5.26,0,0,1,1.973-3.205.452.452,0,0,0,.179-.573,7.017,7.017,0,0,1-.077-3.557,3.779,3.779,0,0,1,7.433.574,7.584,7.584,0,0,1-.192,3.077.46.46,0,0,0,.123.4,6.023,6.023,0,0,1,2.223,5.087c-.014.411.006.822,0,1.233a.991.991,0,0,1-1.084,1.068c-1.611.008-3.221,0-4.832,0m-3.918-2.007h7.842a4.081,4.081,0,0,0-1.7-3.992,3.9,3.9,0,0,1-4.441.013,4.029,4.029,0,0,0-1.7,3.979m5.768-7.787c-.018-.326-.011-.673-.061-1.012a1.787,1.787,0,0,0-1.775-1.529,1.753,1.753,0,0,0-1.8,1.543,9.669,9.669,0,0,0,0,1.961,1.743,1.743,0,0,0,1.8,1.55,1.782,1.782,0,0,0,1.792-1.563c.042-.307.037-.621.054-.95" transform="translate(-895.104 -2.34)" fill="#19aaed"/>
      <path id="Path_62" data-name="Path 62" d="M910.831,33.435q-2.342,0-4.684,0c-.881,0-1.24-.346-1.225-1.221a19.514,19.514,0,0,1,.127-2.7,5.415,5.415,0,0,1,2.027-3.392.455.455,0,0,0,.17-.575,7.131,7.131,0,0,1-.051-3.653,3.781,3.781,0,0,1,7.407.636,7.675,7.675,0,0,1-.191,3.126.462.462,0,0,0,.131.4,6.005,6.005,0,0,1,2.216,5.041c-.011.361,0,.723,0,1.085,0,.917-.337,1.257-1.242,1.259q-2.342,0-4.683,0m-3.889-2h7.818a4.092,4.092,0,0,0-1.69-4,3.893,3.893,0,0,1-4.434.019,3.945,3.945,0,0,0-1.693,3.982m2.041-7.824h.042a7.9,7.9,0,0,0,.006.933,1.784,1.784,0,0,0,1.8,1.609,1.756,1.756,0,0,0,1.8-1.6,9.879,9.879,0,0,0-.011-1.913,1.755,1.755,0,0,0-1.758-1.54,1.79,1.79,0,0,0-1.822,1.532c-.048.322-.042.653-.06.98" transform="translate(-888.147 -5.614)" fill="#19aaed"/>
      <path id="Path_63" data-name="Path 63" d="M892.683,44.235a.967.967,0,0,1,.942.987.983.983,0,1,1-1.966-.032.97.97,0,0,1,1.024-.956" transform="translate(-884.258 -12.977)" fill="#19aaed"/>
    </g>
  </g>
</svg>
