<svg xmlns="http://www.w3.org/2000/svg" xmlns:xlink="http://www.w3.org/1999/xlink" width="76" height="76" viewBox="0 0 76 76">
  <defs>
    <clipPath id="clip-path">
      <rect id="Rectangle_11994" data-name="Rectangle 11994" width="75.304" height="76" fill="#fff"/>
    </clipPath>
  </defs>
  <g id="Group_28004" data-name="Group 28004" transform="translate(-129 -1043)">
    <rect id="Rectangle_11993" data-name="Rectangle 11993" width="76" height="76" transform="translate(129 1043)" fill="#fff" opacity="0"/>
    <g id="Group_28003" data-name="Group 28003" transform="translate(129.348 1043)">
      <g id="Group_28002" data-name="Group 28002" clip-path="url(#clip-path)">
        <path id="Path_39" data-name="Path 39" d="M19.079,76c-2.77-1.619-5.536-3.245-8.31-4.854-3.208-1.861-6.417-3.724-9.645-5.551A1.961,1.961,0,0,1,0,63.693Q.032,53.632,0,43.57a1.916,1.916,0,0,1,1.073-1.855c5.451-3.121,10.883-6.275,16.332-9.4a1.145,1.145,0,0,0,.679-1.152c-.024-6.238,0-12.475-.029-18.713a2.19,2.19,0,0,1,1.23-2.15Q27.954,5.36,36.572.333a1.92,1.92,0,0,1,2.144-.01Q47.409,5.369,56.13,10.369a1.95,1.95,0,0,1,1.106,1.923c-.036,1.014.007,2.03-.013,3.044a1.539,1.539,0,0,1-1.5,1.68c-.872-.006-1.441-.666-1.463-1.7,0-.05,0-.1,0-.149-.024-.81.213-1.776-.148-2.387s-1.319-.887-2.024-1.294c-4.6-2.662-9.211-5.312-13.8-7.991a1.09,1.09,0,0,0-1.27.012q-7.664,4.457-15.356,8.864a1.089,1.089,0,0,0-.626,1.1q.03,8.836,0,17.673a1.076,1.076,0,0,0,.633,1.1c1.639.9,3.25,1.858,5.026,2.881,0-.446-.006-.752,0-1.057.027-1.236-.042-2.484.106-3.705a6.691,6.691,0,0,1,4.118-5.492c.2-.092.4-.174.662-.287a8.215,8.215,0,0,1-1.922-7.137,7.9,7.9,0,0,1,2.887-4.713,8.179,8.179,0,0,1,11.22,11.825c.153.078.295.158.442.224a6.942,6.942,0,0,1,4.4,6.557c.04,1.208.007,2.42.007,3.771.5-.275.9-.491,1.291-.717,1.286-.739,2.563-1.5,3.861-2.214a.84.84,0,0,0,.505-.879c-.034-.716-.021-1.436,0-2.153A1.469,1.469,0,0,1,55.7,27.584a1.49,1.49,0,0,1,1.518,1.5,21.893,21.893,0,0,1,0,2.227.891.891,0,0,0,.55.92c5.447,3.127,10.875,6.287,16.33,9.4a2.127,2.127,0,0,1,1.2,2.084q-.043,9.913,0,19.826a2.181,2.181,0,0,1-1.254,2.132c-5.883,3.36-11.744,6.76-17.611,10.148a1.807,1.807,0,0,0-.219.175h-.891q-8.54-4.933-17.073-9.875a1.041,1.041,0,0,0-1.209.006Q28.519,71.084,19.97,76ZM61.792,55.9c.251.114.495.221.737.334a6.746,6.746,0,0,1,4.036,5.236,23.335,23.335,0,0,1,.1,3.334c.01.507,0,1.014,0,1.638.33-.17.524-.259.709-.366,1.457-.839,2.9-1.7,4.375-2.51a.974.974,0,0,0,.574-.991q-.024-8.946,0-17.893a.932.932,0,0,0-.527-.94q-7.784-4.466-15.545-8.974a.872.872,0,0,0-1.011-.014q-7.793,4.526-15.61,9.01a.87.87,0,0,0-.507.872c.015,6.013,0,12.027.03,18.041a1.1,1.1,0,0,0,.455.791c1.565.948,3.159,1.846,4.746,2.755a3.059,3.059,0,0,0,.428.157c0-1.355-.041-2.643.009-3.926a6.791,6.791,0,0,1,3.59-5.933c.4-.233.84-.408,1.264-.612A8.194,8.194,0,1,1,61.792,55.9M30.518,66.37a1.092,1.092,0,0,0,.279-.054c1.672-.96,3.351-1.91,5-2.909a1.043,1.043,0,0,0,.351-.779c.019-5.989.01-11.977.025-17.966a.922.922,0,0,0-.544-.924Q27.879,39.291,20.151,34.8a.974.974,0,0,0-1.139-.007q-7.727,4.492-15.479,8.937a.933.933,0,0,0-.561.923q.023,8.983,0,17.966a.928.928,0,0,0,.557.926c1.425.8,2.829,1.627,4.243,2.441.243.14.5.261.872.459,0-1.488-.04-2.819.009-4.147a6.7,6.7,0,0,1,3.252-5.6,15.856,15.856,0,0,1,1.576-.806A8.2,8.2,0,0,1,24.932,44.211a8.271,8.271,0,0,1,.711,11.682,2.144,2.144,0,0,0,.25.146A6.962,6.962,0,0,1,30.52,63.1c-.009,1.08,0,2.16,0,3.27m7.191-39.094c-1.311,0-2.623-.007-3.934,0a3.98,3.98,0,0,0-4.105,3.99c-.044,1.706-.025,3.414.007,5.121a.955.955,0,0,0,.4.686q3.575,2.11,7.191,4.153a.871.871,0,0,0,.727.024q3.649-2.059,7.26-4.184a.88.88,0,0,0,.369-.632c.027-1.756.067-3.515,0-5.268a3.96,3.96,0,0,0-4.124-3.889c-1.262-.007-2.524,0-3.786,0M19.56,58.61c-1.237,0-2.475,0-3.712,0A3.963,3.963,0,0,0,11.6,62.816c-.014,1.583.012,3.167-.013,4.75a.914.914,0,0,0,.524.939c2.344,1.328,4.663,2.7,7.013,4.016a1.1,1.1,0,0,0,.916-.015q3.556-2,7.063-4.078a1.02,1.02,0,0,0,.421-.735q.054-2.559.013-5.12a3.959,3.959,0,0,0-3.972-3.96c-1.336-.016-2.672,0-4.008,0m36.2,0c-1.361,0-2.722-.017-4.083,0a3.946,3.946,0,0,0-3.914,3.862c-.038,1.756-.021,3.514,0,5.269a.87.87,0,0,0,.342.635q3.611,2.125,7.258,4.186a.87.87,0,0,0,.725.005q3.614-2.044,7.191-4.152a.952.952,0,0,0,.4-.686c.03-1.756.052-3.514,0-5.269a3.909,3.909,0,0,0-3.984-3.854c-1.311-.013-2.623,0-3.934,0m-18.08-44.7a5.194,5.194,0,1,0,5.165,5.22,5.2,5.2,0,0,0-5.165-5.22M50.549,50.376a5.193,5.193,0,0,0,10.386-.012,5.193,5.193,0,0,0-10.386.012m-25.8.019a5.176,5.176,0,0,0-5.156-5.218,5.187,5.187,0,1,0-.05,10.374A5.156,5.156,0,0,0,24.749,50.4" transform="translate(0 0)" fill="#fff"/>
        <path id="Path_40" data-name="Path 40" d="M73.285,29.64a1.438,1.438,0,0,1,1.421-1.491,1.469,1.469,0,1,1,.052,2.937,1.452,1.452,0,0,1-1.473-1.445" transform="translate(-19.02 -7.305)" fill="#fff"/>
      </g>
    </g>
  </g>
</svg>
