<svg xmlns="http://www.w3.org/2000/svg" xmlns:xlink="http://www.w3.org/1999/xlink" width="50.511" height="50" viewBox="0 0 50.511 50">
  <defs>
    <clipPath id="clip-path">
      <rect id="Rectangle_11995" data-name="Rectangle 11995" width="50.511" height="47.201" fill="#19aaed"/>
    </clipPath>
  </defs>
  <g id="Group_28024" data-name="Group 28024" transform="translate(0 -0.129)">
    <rect id="Rectangle_11993" data-name="Rectangle 11993" width="50" height="50" transform="translate(0.166 0.129)" fill="#19aaed" opacity="0"/>
    <g id="Group_28023" data-name="Group 28023" transform="translate(0 1.655)">
      <g id="Group_28022" data-name="Group 28022" transform="translate(0 0)" clip-path="url(#clip-path)">
        <path id="Path_106" data-name="Path 106" d="M0,46.484V11.856a1.157,1.157,0,0,1,1.268-.721c.343.028.69,0,1.035,0H4.645V10.1c0-1.021.306-1.332,1.315-1.332q4.512,0,9.025,0c.3,0,.46-.042.516-.405a9.872,9.872,0,0,1,19.493-.116c.069.425.2.529.613.526,2.959-.017,5.918-.009,8.877-.008,1.091,0,1.382.287,1.382,1.363,0,.323,0,.646,0,1.012,1.18,0,2.295,0,3.41,0,.914,0,1.235.33,1.235,1.256q0,5.055,0,10.11,0,11.713,0,23.426c0,.923-.326,1.255-1.236,1.258-.954,0-1.907,0-2.861,0-1.38,0-2.761.008-4.142,0a.977.977,0,0,1-1.025-1.192,1.062,1.062,0,0,1,1.168-.774c1.857,0,3.715,0,5.573,0h.524V13.147H45.866V40.838c0,1.191-.283,1.469-1.492,1.469-3.913,0-7.825.01-11.738,0a11.73,11.73,0,0,0-5.724,1.407c-.745.4-.832.624-.586,1.51h1.522c1.808,0,3.616,0,5.425,0,.793,0,1.277.513,1.152,1.184-.1.527-.5.786-1.242.786q-15.955,0-31.909.009A1.24,1.24,0,0,1,0,46.484m6.64-6.15h.612c3.551,0,7.1.008,10.653,0a13.664,13.664,0,0,1,4.645.754c.567.2,1.117.453,1.7.69V30.217c-.132-.032-.243-.064-.355-.086a5.264,5.264,0,0,1-4.37-4.592,27.362,27.362,0,0,1-.067-3.594A9.584,9.584,0,0,0,17.8,16.465a20.334,20.334,0,0,1-1.578-2.721,27.21,27.21,0,0,1-.951-2.971H6.64Zm28.5-29.574c-.792,3.157-.776,3.167-2.429,5.739a9.661,9.661,0,0,0-1.653,5.725c.036.9.02,1.808,0,2.712a5.427,5.427,0,0,1-3.752,5.038c-.339.108-.695.167-1.031.246V41.785c.147-.06.253-.1.355-.146A12.7,12.7,0,0,1,32.1,40.346c3.715-.014,7.431-.009,11.146-.012h.613V10.76ZM29.123,20.72a10.307,10.307,0,0,1,1.284-4.093c.436-.79.912-1.559,1.4-2.318A7.91,7.91,0,1,0,18.7,14.3c.425.625.858,1.246,1.24,1.9a10.87,10.87,0,0,1,1.452,4.5h2.87c0-1.536.011-3.033,0-4.528a6.422,6.422,0,0,0-1.1-3.526,14.583,14.583,0,0,1-.849-1.384,3.3,3.3,0,0,1,.919-4.083,3.209,3.209,0,0,1,4.053.016,3.305,3.305,0,0,1,.893,4.089,14.876,14.876,0,0,1-.826,1.341,5.459,5.459,0,0,0-1.028,2.737c-.074,1.755-.056,3.514-.073,5.271,0,.026.034.052.062.092ZM1.988,45.18H24.243c.011-.085.023-.133.024-.18a1.855,1.855,0,0,0-.008-.54.965.965,0,0,0-.305-.534,10.347,10.347,0,0,0-5.269-1.589c-4.193-.04-8.385-.024-12.578-.03-1.167,0-1.462-.294-1.462-1.452v-27.7H1.988ZM21.471,22.733a22.218,22.218,0,0,0,.02,2.665,3.258,3.258,0,0,0,2.738,2.787,9.211,9.211,0,0,0,1.622.045,3.285,3.285,0,0,0,3.128-2.6,24.668,24.668,0,0,0,.151-2.9Zm3.785-10.465c.413-.662.8-1.231,1.135-1.829a1.322,1.322,0,1,0-2.262.018c.336.594.72,1.161,1.126,1.811" transform="translate(0 0)" fill="#19aaed"/>
        <path id="Path_107" data-name="Path 107" d="M54.7,65.659a.975.975,0,0,1-.986.954.987.987,0,0,1-.977-1.013.969.969,0,0,1,1.008-.928.979.979,0,0,1,.955.987" transform="translate(-15.843 -19.428)" fill="#19aaed"/>
        <path id="Path_108" data-name="Path 108" d="M19.514,50.948q-2.192,0-4.384,0c-.741,0-1.166-.355-1.173-.963A1.012,1.012,0,0,1,15.1,48.978q4.457-.009,8.915,0a.989.989,0,0,1,1.12.978c.007.612-.421.989-1.143.99-1.494,0-2.988,0-4.482,0" transform="translate(-4.193 -14.713)" fill="#19aaed"/>
        <path id="Path_109" data-name="Path 109" d="M18.142,41.821c-1.066,0-2.133.006-3.2,0a.929.929,0,0,1-.953-.707.885.885,0,0,1,.358-1.042,1.222,1.222,0,0,1,.639-.2q3.174-.022,6.349,0a.957.957,0,0,1,1.037,1,.968.968,0,0,1-1.082.957c-1.049.013-2.1,0-3.15,0v0" transform="translate(-4.189 -11.972)" fill="#19aaed"/>
        <path id="Path_110" data-name="Path 110" d="M17.839,30.741c.921,0,1.841-.006,2.761,0a.985.985,0,1,1,.034,1.963q-2.81.024-5.621,0a.985.985,0,0,1-1.056-1,.964.964,0,0,1,1.071-.967c.937-.009,1.874,0,2.811,0" transform="translate(-4.193 -9.234)" fill="#19aaed"/>
        <path id="Path_111" data-name="Path 111" d="M16.514,23.566c-.508,0-1.016.01-1.524,0a.979.979,0,0,1-1.033-.96A.969.969,0,0,1,14.99,21.6q1.524-.02,3.048,0a.982.982,0,1,1,0,1.963c-.508.015-1.016,0-1.524,0" transform="translate(-4.193 -6.486)" fill="#19aaed"/>
        <path id="Path_112" data-name="Path 112" d="M48.172,50.948c-1.478,0-2.956,0-4.433,0-.7,0-1.127-.364-1.145-.947a1.02,1.02,0,0,1,1.138-1.021q4.458-.009,8.915,0a1.014,1.014,0,0,1,1.145,1.013c-.013.581-.449.954-1.138.956-1.494,0-2.988,0-4.482,0" transform="translate(-12.796 -14.712)" fill="#19aaed"/>
        <path id="Path_113" data-name="Path 113" d="M50.643,41.82c-1.083,0-2.167.023-3.249-.008a.941.941,0,0,1-.823-1.486,1.267,1.267,0,0,1,.86-.451c2.149-.038,4.3-.031,6.449-.015a.984.984,0,1,1-.038,1.96c-1.066.013-2.133,0-3.2,0v0" transform="translate(-13.934 -11.971)" fill="#19aaed"/>
        <path id="Path_114" data-name="Path 114" d="M51.4,30.74c.921,0,1.841,0,2.762,0a.989.989,0,1,1,.029,1.966q-2.786.02-5.573,0a1.008,1.008,0,0,1-1.086-1.026.992.992,0,0,1,1.106-.94c.921-.007,1.841,0,2.762,0" transform="translate(-14.281 -9.234)" fill="#19aaed"/>
        <path id="Path_115" data-name="Path 115" d="M53.875,23.566c-.508,0-1.016.01-1.524,0a.972.972,0,0,1-1.032-1.007.961.961,0,0,1,1.028-.958q1.524-.019,3.048,0a.982.982,0,1,1,0,1.963c-.507.015-1.016,0-1.524,0" transform="translate(-15.417 -6.486)" fill="#19aaed"/>
      </g>
    </g>
  </g>
</svg>
