<svg id="Group_28075" data-name="Group 28075" xmlns="http://www.w3.org/2000/svg" xmlns:xlink="http://www.w3.org/1999/xlink" width="28" height="28" viewBox="0 0 28 28">
  <defs>
    <clipPath id="clip-path">
      <rect id="Rectangle_12007" data-name="Rectangle 12007" width="28" height="28" fill="none"/>
    </clipPath>
  </defs>
  <g id="Group_28074" data-name="Group 28074" transform="translate(0 0)" clip-path="url(#clip-path)">
    <path id="Path_133" data-name="Path 133" d="M28,14A14,14,0,1,1,14,0,14,14,0,0,1,28,14" transform="translate(0 0)" fill="#3cf"/>
    <path id="Path_134" data-name="Path 134" d="M23.456,11.232a6.308,6.308,0,0,1-1.544.44c.248-.041.613-.491.759-.673a2.841,2.841,0,0,0,.513-.935c.013-.027.023-.06,0-.081a.088.088,0,0,0-.082.007,7.893,7.893,0,0,1-1.83.7.123.123,0,0,1-.127-.033,1.43,1.43,0,0,0-.16-.164,3.25,3.25,0,0,0-.887-.543,3.076,3.076,0,0,0-1.36-.219,3.256,3.256,0,0,0-1.29.364,3.323,3.323,0,0,0-1.041.851,3.192,3.192,0,0,0-.621,1.245,3.357,3.357,0,0,0-.033,1.314c.01.074,0,.084-.063.074a9.78,9.78,0,0,1-6.291-3.2c-.074-.084-.113-.084-.173.006a3.189,3.189,0,0,0,.544,3.769c.123.117.25.233.386.34a3.215,3.215,0,0,1-1.214-.34c-.073-.047-.11-.02-.116.063a1.885,1.885,0,0,0,.02.361,3.225,3.225,0,0,0,1.988,2.571,1.832,1.832,0,0,0,.4.123,3.624,3.624,0,0,1-1.191.037c-.086-.017-.119.026-.086.11a3.35,3.35,0,0,0,2.5,2.095c.113.02.226.02.34.046-.007.01-.013.01-.02.021a3.964,3.964,0,0,1-1.709.905,6.129,6.129,0,0,1-2.595.332c-.139-.021-.169-.019-.207,0s0,.057.04.093c.176.117.357.221.54.321a8.577,8.577,0,0,0,1.735.694,9.238,9.238,0,0,0,8.969-2.1,9.412,9.412,0,0,0,2.482-6.866c0-.1.117-.153.186-.2a6.049,6.049,0,0,0,1.22-1.269.38.38,0,0,0,.081-.243v-.013c0-.04,0-.028-.063,0" transform="translate(-1.721 -2.029)" fill="#fff"/>
  </g>
</svg>
