<svg xmlns="http://www.w3.org/2000/svg" width="50.499" height="50.511" viewBox="0 0 50.499 50.511">
  <g id="Group_28017" data-name="Group 28017" transform="translate(-0.006 0)">
    <rect id="Rectangle_11993" data-name="Rectangle 11993" width="50" height="50" transform="translate(0.166 0.129)" fill="#19aaed" opacity="0"/>
    <g id="Group_28011" data-name="Group 28011" transform="translate(0.006)">
      <path id="Path_41" data-name="Path 41" d="M415.245,0c.247.078.5.147.743.235a3.957,3.957,0,0,1,2.6,3.562,5.253,5.253,0,0,1-.488,3.018c-.226.374-.506.716-.78,1.1a7.055,7.055,0,0,1,4.236,5.9c.678,0,1.348,0,2.017,0,.789.006,1.148.358,1.153,1.141q.01,1.824,0,3.648a1,1,0,0,1-1.119,1.126c-.309,0-.617,0-.962,0-.063.974-.127,1.9-.181,2.834-.232,4-.457,8.005-.7,12.007a.541.541,0,0,0,.417.635,3.854,3.854,0,0,1,2.536,3.649,10.273,10.273,0,0,1-.061,1.769,3.952,3.952,0,0,1-1.314,2.344,7.339,7.339,0,0,1,3.436,2.945,7.4,7.4,0,0,1,3.436-2.937c-.132-.143-.235-.264-.348-.375-1.5-1.458-1.537-5.55.634-6.939a3.951,3.951,0,0,1,4.11-.33,3.808,3.808,0,0,1,2.236,3.454,10.645,10.645,0,0,1-.054,1.82,3.825,3.825,0,0,1-1.241,2.287,22.374,22.374,0,0,1,2.008,1.4,6.719,6.719,0,0,1,2.254,4.156,1.886,1.886,0,0,0,.087.276v1.085a1.351,1.351,0,0,1-1.341.7q-23.914-.019-47.828-.01c-1.041,0-1.407-.363-1.316-1.415a6.974,6.974,0,0,1,3.942-5.9c.131-.069.264-.13.435-.213a1.328,1.328,0,0,0-.169-.218c-1.579-1.312-1.5-4.944-.354-6.3a4.134,4.134,0,0,1,4.384-1.357,3.964,3.964,0,0,1,2.8,3.669,5.4,5.4,0,0,1-.282,2.619c-.272.551-.637,1.057-.984,1.623a7.32,7.32,0,0,1,3.33,2.9,7.386,7.386,0,0,1,3.444-2.946,3.723,3.723,0,0,1-1.3-2.3,9.56,9.56,0,0,1-.01-2.452,3.788,3.788,0,0,1,2.559-3.057.415.415,0,0,0,.33-.493q-.33-5.412-.64-10.826-.109-1.87-.22-3.74c-.006-.111-.02-.221-.033-.373-.37,0-.712.011-1.054,0a.96.96,0,0,1-1.014-1.028q-.018-1.923,0-3.846a.961.961,0,0,1,1.054-1.038c.688-.011,1.378,0,2.109,0a7.074,7.074,0,0,1,4.3-5.924,4.69,4.69,0,0,1-1.261-4.576A3.77,3.77,0,0,1,413.84.092,1.8,1.8,0,0,0,414.062,0Zm7.486,15.82H406.578v1.934c1.16,0,2.29,0,3.42,0,.748,0,1.21.391,1.2,1-.011.594-.461.965-1.183.97-.452,0-.9,0-1.36,0,0,.148,0,.213,0,.279q.428,7.332.849,14.665c.016.3.149.374.389.458a3.906,3.906,0,0,1,2.383,2.212,6.189,6.189,0,0,1,.237,3.348,3.9,3.9,0,0,1-1.3,2.28,7.362,7.362,0,0,1,3.437,2.936A7.3,7.3,0,0,1,418.008,43c-.325-.489-.669-.931-.931-1.416a5.252,5.252,0,0,1-.36-2.752,3.517,3.517,0,0,1,2.086-3.371,1.6,1.6,0,0,0,1.066-1.813c0-.1.006-.2.011-.3q.279-4.822.558-9.645c.076-1.307.145-2.615.22-3.975-.53,0-1.019.01-1.508,0a.985.985,0,1,1,0-1.966c.789-.012,1.578,0,2.367,0h1.211Zm-12.943-2.034h9.734a4.89,4.89,0,0,0-9.734,0M391.506,48.5h9.9a5.049,5.049,0,0,0-9.9,0m12.132,0h9.9a5.049,5.049,0,0,0-9.9,0m24.263,0h9.9a5.049,5.049,0,0,0-9.9,0m-12.129,0h9.9a5.048,5.048,0,0,0-9.9,0m-21.4-9.1.05.006c0,.2-.007.394,0,.591a2.034,2.034,0,0,0,4.065,0c.015-.394.016-.788,0-1.182a2.029,2.029,0,0,0-3.945-.57,6.946,6.946,0,0,0-.17,1.158m16.283.03-.03,0c0-.181,0-.362,0-.542a2.035,2.035,0,0,0-4.07,0q-.016.542,0,1.083a2.034,2.034,0,0,0,3.994.48,6.52,6.52,0,0,0,.106-1.023m12.125-.014h-.023c0-.18.006-.361,0-.541a2.035,2.035,0,0,0-4.068-.02c-.013.377-.013.755,0,1.132a2.036,2.036,0,0,0,4.014.408,6.582,6.582,0,0,0,.078-.978m12.139.006-.03,0c0-.181,0-.361,0-.542a2.035,2.035,0,0,0-4.07.019c-.01.361-.011.722,0,1.083a2.033,2.033,0,0,0,4,.464,6.6,6.6,0,0,0,.1-1.023M416.659,4.437l-.035,0c0-.18.007-.361,0-.541a1.97,1.97,0,0,0-3.938.016c-.013.377-.017.755,0,1.13A1.984,1.984,0,0,0,414.465,6.9a1.942,1.942,0,0,0,2.073-1.445,7.339,7.339,0,0,0,.122-1.018" transform="translate(-389.405 -0.003)" fill="#19aaed"/>
      <path id="Path_42" data-name="Path 42" d="M450.66,0c.97.626.95,1.41-.052,1.991-.7.4-1.391.81-2.091,1.2a.992.992,0,1,1-.987-1.7c.844-.5,1.692-.995,2.538-1.492Z" transform="translate(-406.277 -0.003)" fill="#19aaed"/>
      <path id="Path_43" data-name="Path 43" d="M400.041,0c.85.493,1.7.982,2.55,1.481a1,1,0,0,1,.48,1.445,1.01,1.01,0,0,1-1.469.256C400.918,2.8,400.237,2.4,399.557,2c-1.007-.587-1.044-1.312-.107-2Z" transform="translate(-392.153 -0.003)" fill="#19aaed"/>
      <path id="Path_44" data-name="Path 44" d="M397.818,14.534c-.46,0-.92.012-1.379,0a.982.982,0,1,1,0-1.963c.936-.015,1.872-.016,2.808,0a.981.981,0,1,1,0,1.962c-.476.018-.952,0-1.428,0" transform="translate(-391.169 -3.686)" fill="#19aaed"/>
      <path id="Path_45" data-name="Path 45" d="M403.318,24.182a3.31,3.31,0,0,1-.642.785c-.768.5-1.576.943-2.379,1.389a.965.965,0,0,1-1.37-.328.954.954,0,0,1,.37-1.358c.8-.483,1.608-.956,2.43-1.4a1.075,1.075,0,0,1,1.59.913" transform="translate(-392.155 -6.787)" fill="#19aaed"/>
      <path id="Path_46" data-name="Path 46" d="M452.172,14.535c-.459,0-.919.01-1.379,0a.985.985,0,1,1,0-1.966c.919-.012,1.838-.014,2.757,0a.982.982,0,1,1,0,1.964c-.459.014-.919,0-1.379,0" transform="translate(-407.107 -3.686)" fill="#19aaed"/>
      <path id="Path_47" data-name="Path 47" d="M448.037,23.133a2.416,2.416,0,0,1,.444.166q1.159.651,2.3,1.329a.988.988,0,1,1-1,1.695c-.8-.452-1.6-.907-2.384-1.384a.912.912,0,0,1-.435-1.1.989.989,0,0,1,1.068-.7" transform="translate(-406.277 -6.788)" fill="#19aaed"/>
      <path id="Path_48" data-name="Path 48" d="M424.7,27.1a.983.983,0,1,1,1-.938.993.993,0,0,1-1,.938" transform="translate(-399.478 -7.375)" fill="#19aaed"/>
    </g>
  </g>
</svg>
