<svg id="Group_28073" data-name="Group 28073" xmlns="http://www.w3.org/2000/svg" width="28" height="28" viewBox="0 0 28 28">
  <path id="Path_127" data-name="Path 127" d="M28,341.491a14,14,0,1,1-14-14,14,14,0,0,1,14,14" transform="translate(0 -327.491)" fill="red"/>
  <path id="Path_128" data-name="Path 128" d="M21.461,342.209c0-2.1-1.342-3.8-3-3.8H10.8c-1.655,0-3,1.7-3,3.8v4.525c0,2.1,1.342,3.8,3,3.8h7.664c1.655,0,3-1.7,3-3.8Zm-4.507,2.6-3.436,2.157c-.135.092-.593-.031-.593-.226v-4.428c0-.2.461-.32.6-.223l3.29,2.271c.138.1.283.353.143.448" transform="translate(-0.818 -330.471)" fill="#fff"/>
</svg>
