<svg xmlns="http://www.w3.org/2000/svg" xmlns:xlink="http://www.w3.org/1999/xlink" width="76" height="76" viewBox="0 0 76 76">
  <defs>
    <clipPath id="clip-path">
      <rect id="Rectangle_11995" data-name="Rectangle 11995" width="76" height="71.019" fill="#fff"/>
    </clipPath>
  </defs>
  <g id="Group_28024" data-name="Group 28024" transform="translate(-387 -1301)">
    <rect id="Rectangle_11993" data-name="Rectangle 11993" width="76" height="76" transform="translate(387 1301)" fill="#fff" opacity="0"/>
    <g id="Group_28023" data-name="Group 28023" transform="translate(387 1303.49)">
      <g id="Group_28022" data-name="Group 28022" transform="translate(0 0)" clip-path="url(#clip-path)">
        <path id="Path_106" data-name="Path 106" d="M0,69.94v-52.1a1.741,1.741,0,0,1,1.907-1.084c.516.042,1.038.007,1.558.007H6.988V15.192c0-1.536.461-2,1.978-2q6.789,0,13.58.005c.455,0,.693-.063.776-.609a14.853,14.853,0,0,1,29.33-.175c.1.639.305.8.922.792,4.453-.025,8.9-.014,13.356-.013,1.642,0,2.079.432,2.08,2.052,0,.485,0,.972,0,1.522,1.776,0,3.453,0,5.13,0,1.376,0,1.859.5,1.859,1.889q0,7.606,0,15.212,0,17.624,0,35.247C76,70.5,75.508,71,74.139,71c-1.435.005-2.869,0-4.3,0-2.077,0-4.155.013-6.232-.007A1.47,1.47,0,0,1,62.06,69.2a1.6,1.6,0,0,1,1.757-1.165c2.795-.006,5.589,0,8.385,0h.788V19.782h-3.98V61.446c0,1.792-.425,2.21-2.244,2.21-5.887,0-11.773.016-17.661-.007a17.648,17.648,0,0,0-8.612,2.117c-1.121.606-1.252.939-.882,2.272H41.9c2.721,0,5.441-.006,8.162,0,1.193.005,1.922.773,1.733,1.782-.148.794-.755,1.183-1.869,1.183q-24.006,0-48.01.014A1.866,1.866,0,0,1,0,69.94m9.99-9.253h.921c5.343,0,10.685.013,16.028-.005a20.559,20.559,0,0,1,6.989,1.135c.854.3,1.68.681,2.553,1.039V45.465c-.2-.048-.365-.1-.535-.129a7.921,7.921,0,0,1-6.576-6.909,41.168,41.168,0,0,1-.1-5.408,14.42,14.42,0,0,0-2.481-8.244,30.6,30.6,0,0,1-2.374-4.094,40.94,40.94,0,0,1-1.43-4.47H9.99Zm42.883-44.5c-1.192,4.749-1.167,4.765-3.655,8.636a14.537,14.537,0,0,0-2.487,8.613c.054,1.358.029,2.721,0,4.081A8.165,8.165,0,0,1,41.088,45.1c-.511.162-1.045.251-1.552.369v17.4c.221-.091.381-.147.534-.22A19.113,19.113,0,0,1,48.3,60.7c5.59-.021,11.181-.014,16.771-.018h.922v-44.5ZM43.819,31.176a15.509,15.509,0,0,1,1.933-6.158c.656-1.188,1.372-2.346,2.108-3.487a11.9,11.9,0,1,0-19.717-.021c.639.94,1.29,1.875,1.866,2.853a16.354,16.354,0,0,1,2.185,6.775h4.318c0-2.312.017-4.563-.005-6.812a9.663,9.663,0,0,0-1.648-5.305,21.942,21.942,0,0,1-1.277-2.083,4.97,4.97,0,0,1,1.383-6.143,4.829,4.829,0,0,1,6.1.024,4.973,4.973,0,0,1,1.343,6.152,22.382,22.382,0,0,1-1.243,2.018,8.214,8.214,0,0,0-1.546,4.118c-.112,2.641-.084,5.287-.111,7.931,0,.039.051.078.093.139ZM2.99,67.979H36.476c.017-.128.035-.2.036-.272a2.791,2.791,0,0,0-.012-.813,1.451,1.451,0,0,0-.459-.8,15.569,15.569,0,0,0-7.928-2.39c-6.308-.06-12.616-.036-18.925-.045-1.756,0-2.2-.442-2.2-2.184V19.789h-4ZM32.305,34.2a33.431,33.431,0,0,0,.029,4.009,4.9,4.9,0,0,0,4.12,4.194,13.86,13.86,0,0,0,2.44.068A4.943,4.943,0,0,0,43.6,38.566a37.116,37.116,0,0,0,.227-4.362ZM38,18.458c.622-1,1.2-1.853,1.708-2.752a1.989,1.989,0,1,0-3.4.027c.506.894,1.083,1.747,1.695,2.724" transform="translate(0 0)" fill="#fff"/>
        <path id="Path_107" data-name="Path 107" d="M55.692,66.157a1.467,1.467,0,0,1-1.483,1.435,1.485,1.485,0,0,1-1.47-1.524,1.458,1.458,0,0,1,1.517-1.4,1.474,1.474,0,0,1,1.437,1.485" transform="translate(2.774 3.402)" fill="#fff"/>
        <path id="Path_108" data-name="Path 108" d="M22.318,51.944q-3.3,0-6.6,0c-1.115,0-1.755-.535-1.765-1.449a1.522,1.522,0,0,1,1.726-1.514q6.706-.014,13.413,0a1.487,1.487,0,0,1,1.685,1.472c.011.921-.634,1.487-1.72,1.489-2.248.006-4.5,0-6.744,0" transform="translate(0.734 2.576)" fill="#fff"/>
        <path id="Path_109" data-name="Path 109" d="M20.261,42.815c-1.6,0-3.209.008-4.814,0a1.4,1.4,0,0,1-1.434-1.064,1.331,1.331,0,0,1,.539-1.568,1.839,1.839,0,0,1,.962-.306q4.776-.033,9.552-.005a1.44,1.44,0,0,1,1.56,1.508A1.456,1.456,0,0,1,25,42.815c-1.579.02-3.159.005-4.739.005v-.005" transform="translate(0.733 2.096)" fill="#fff"/>
        <path id="Path_110" data-name="Path 110" d="M19.8,30.742c1.385,0,2.77-.008,4.155,0A1.481,1.481,0,1,1,24,33.7q-4.228.036-8.458,0a1.482,1.482,0,0,1-1.589-1.5,1.451,1.451,0,0,1,1.612-1.455c1.409-.014,2.82,0,4.229,0" transform="translate(0.734 1.617)" fill="#fff"/>
        <path id="Path_111" data-name="Path 111" d="M17.8,24.564c-.764,0-1.529.015-2.294,0a1.473,1.473,0,0,1-1.554-1.444A1.458,1.458,0,0,1,15.512,21.6q2.293-.03,4.586,0a1.478,1.478,0,1,1,0,2.954c-.764.023-1.529.005-2.294.005" transform="translate(0.734 1.135)" fill="#fff"/>
        <path id="Path_112" data-name="Path 112" d="M50.986,51.944c-2.223,0-4.447,0-6.67,0-1.047,0-1.7-.548-1.722-1.425a1.535,1.535,0,0,1,1.712-1.537q6.707-.014,13.414,0A1.525,1.525,0,0,1,59.442,50.5c-.019.874-.676,1.436-1.712,1.438-2.247.006-4.5,0-6.744,0" transform="translate(2.24 2.576)" fill="#fff"/>
        <path id="Path_113" data-name="Path 113" d="M52.793,42.815c-1.629,0-3.26.035-4.888-.012a1.416,1.416,0,0,1-1.238-2.236,1.907,1.907,0,0,1,1.295-.678c3.234-.058,6.468-.046,9.7-.023a1.48,1.48,0,1,1-.057,2.948c-1.6.02-3.209.005-4.815.005v-.005" transform="translate(2.44 2.096)" fill="#fff"/>
        <path id="Path_114" data-name="Path 114" d="M53.357,30.741c1.385,0,2.77-.007,4.156,0a1.487,1.487,0,1,1,.044,2.958q-4.192.03-8.385,0a1.517,1.517,0,0,1-1.635-1.543A1.493,1.493,0,0,1,49.2,30.744c1.385-.011,2.77,0,4.156,0" transform="translate(2.5 1.617)" fill="#fff"/>
        <path id="Path_115" data-name="Path 115" d="M55.165,24.564c-.764,0-1.529.015-2.293,0a1.462,1.462,0,0,1-1.553-1.515A1.446,1.446,0,0,1,52.867,21.6q2.293-.028,4.586,0a1.478,1.478,0,1,1,0,2.954c-.763.023-1.528.005-2.293.005" transform="translate(2.7 1.135)" fill="#fff"/>
      </g>
    </g>
  </g>
</svg>
