<svg xmlns="http://www.w3.org/2000/svg" width="50.497" height="50.511" viewBox="0 0 50.497 50.511">
  <g id="Group_28026" data-name="Group 28026" transform="translate(-0.007 0)">
    <rect id="Rectangle_11993" data-name="Rectangle 11993" width="50" height="50" transform="translate(0.166 0.129)" fill="#19aaed" opacity="0"/>
    <g id="Group_28008" data-name="Group 28008" transform="translate(0.007)">
      <path id="Path_96" data-name="Path 96" d="M134.574,48.63v1.184a1.351,1.351,0,0,1-1.341.7q-13.535-.022-27.069-.01-10.428,0-20.856,0c-.9,0-1.266-.363-1.226-1.266A8.852,8.852,0,0,1,87.557,42.4c.637-.5,1.367-.888,2.066-1.333-.052-.073-.117-.167-.186-.257A25.242,25.242,0,0,1,104.922.391c.937-.154,1.882-.26,2.823-.388H110.9c.324.04.647.084.971.119a24.66,24.66,0,0,1,14.07,6.156,46.3,46.3,0,0,1,3.469,3.694.93.93,0,0,1,.013,1.264.947.947,0,0,1-1.159.257,2.486,2.486,0,0,1-.536-.493c-1.062-1.118-2.116-2.245-3.186-3.355a.838.838,0,0,0-.5-.243,6,6,0,0,0-1.229.04,6.413,6.413,0,0,0-2.557,11.793c.866.565,1.749,1.106,2.6,1.689a5.688,5.688,0,0,1,2.335,6.18,5.957,5.957,0,0,1-2.2,3.242,3.6,3.6,0,0,0-1.439,3.375,2.4,2.4,0,0,0,.367.705,4.483,4.483,0,0,1,7.944,1.752c.082-.143.124-.213.161-.285A23.317,23.317,0,0,0,131.76,19.04c-.208-.759.05-1.307.666-1.456.581-.141,1.06.213,1.242.962.194.8.382,1.6.522,2.4.158.9.258,1.817.383,2.726v3.058a3.6,3.6,0,0,0-.082.428,24.209,24.209,0,0,1-2.935,10.023c-.748,1.359-1.643,2.637-2.484,3.972.049.028.158.1.272.152a9.019,9.019,0,0,1,4.981,6.125c.1.4.166.8.248,1.2M121.846,5.6A23.2,23.2,0,0,0,104.907,2.4,22.363,22.363,0,0,0,92.586,9.191c.7.064,1.387.041,2.071.069a5.219,5.219,0,0,1,4.807,3.605,5.153,5.153,0,0,1-1.739,5.752,9.3,9.3,0,0,0-3.218,4.537,9.311,9.311,0,0,1-5.9,5.878c-.685.249-1.412.383-2.147.577a22.781,22.781,0,0,0,2.293,6.532,4.519,4.519,0,0,1,7.9-1.822l1.4-.677a5.106,5.106,0,0,1-1.249-4.1,4.439,4.439,0,0,1,7.679-2.824,5.549,5.549,0,0,1,.287,6.5c-.112.134-.211.279-.328.433l1.388.664c2.271-2.253,4.337-2.248,7.015,0l1.345-.659a5.156,5.156,0,0,1-1.208-4.082,4.427,4.427,0,0,1,8.594-1.326c.059.165.124.328.188.5a3.735,3.735,0,0,0,.011-6.172c-.957-.665-1.967-1.254-2.925-1.919A8.358,8.358,0,0,1,117.8,7.808,8.722,8.722,0,0,1,121.846,5.6M86.183,27.575c.245-.034.473-.048.692-.1a7.577,7.577,0,0,0,5.873-5.25,10.1,10.1,0,0,1,3.535-4.978,3.3,3.3,0,0,0-2.027-6.034c-1-.008-2,.014-3.007-.011a.819.819,0,0,0-.77.39,23.186,23.186,0,0,0-4.317,11.321,19.916,19.916,0,0,0,.02,4.658m-.042,20.932h13.99a7,7,0,0,0-6.614-6.079,7.074,7.074,0,0,0-7.377,6.079m30.164,0a7.054,7.054,0,0,0-13.974,0Zm16.169.006a7.031,7.031,0,0,0-7.332-6.091c-3.315.131-6.838,3.369-6.6,6.091ZM106.164,41a5.167,5.167,0,0,1-1.21-4.547.413.413,0,0,0-.276-.489,7.067,7.067,0,0,0-6.885,0,.461.461,0,0,0-.273.537,13.852,13.852,0,0,1,0,2.012,4.392,4.392,0,0,1-1.191,2.5,9.342,9.342,0,0,1,4.908,4.364A9.368,9.368,0,0,1,106.164,41m16.173,0a5.275,5.275,0,0,1-1.218-4.581.473.473,0,0,0-.17-.387,6.968,6.968,0,0,0-7.045-.014.469.469,0,0,0-.206.37,5.312,5.312,0,0,1-1.211,4.618,9.4,9.4,0,0,1,4.93,4.372A9.346,9.346,0,0,1,122.336,41M90.687,37.479c0,.165-.006.329,0,.493a2.471,2.471,0,0,0,2.162,2.372,2.4,2.4,0,0,0,2.681-1.934,5.453,5.453,0,0,0,.049-1.615,2.443,2.443,0,0,0-3.135-2.066,2.542,2.542,0,0,0-1.757,2.752m21.1.006c0-.148,0-.3,0-.444a2.474,2.474,0,0,0-2.233-2.409,2.424,2.424,0,0,0-2.63,2.011,5.641,5.641,0,0,0-.035,1.52,2.445,2.445,0,0,0,3.161,2.085,2.545,2.545,0,0,0,1.738-2.764m16.177.016c0-.148,0-.3,0-.443a2.472,2.472,0,0,0-2.267-2.427,2.436,2.436,0,0,0-2.616,2.093,5.485,5.485,0,0,0,0,1.521,2.444,2.444,0,0,0,3.274,1.965A2.564,2.564,0,0,0,127.96,37.5m-24.266-7.343c0-.164.006-.329,0-.493a2.453,2.453,0,0,0-2.222-2.36,2.38,2.38,0,0,0-2.624,1.941,5.5,5.5,0,0,0-.045,1.615,2.433,2.433,0,0,0,2.952,2.1,2.522,2.522,0,0,0,1.94-2.8m16.176-.011c0-.164.006-.329,0-.493a2.451,2.451,0,0,0-2.231-2.35,2.381,2.381,0,0,0-2.616,1.953,5.472,5.472,0,0,0-.041,1.615,2.429,2.429,0,0,0,2.912,2.094c1.285-.261,1.981-1.251,1.977-2.819" transform="translate(-84.077 -0.003)" fill="#19aaed"/>
      <path id="Path_97" data-name="Path 97" d="M150.137,18.995a.983.983,0,1,1-.061,1.965.983.983,0,0,1,.061-1.965" transform="translate(-103.16 -5.574)" fill="#19aaed"/>
      <path id="Path_98" data-name="Path 98" d="M120.235,21.852A5.7,5.7,0,0,1,119,26.185a4.892,4.892,0,0,1-5.056,1.8,4.641,4.641,0,0,1-3.6-3.531A4.555,4.555,0,0,1,110.7,21.1c.423-.833.875-1.654,1.348-2.459a4.4,4.4,0,0,1,8.184,2.172c.006.345,0,.69,0,1.035m-1.926.047-.046,0c0-.345.006-.69,0-1.035a2.42,2.42,0,0,0-1.74-2.312,2.372,2.372,0,0,0-2.734,1.049c-.482.8-.936,1.622-1.349,2.459a2.8,2.8,0,0,0,.765,3.429,3.128,3.128,0,0,0,4.941-1.878,12.1,12.1,0,0,0,.164-1.709" transform="translate(-91.732 -4.834)" fill="#19aaed"/>
    </g>
  </g>
</svg>
