<svg xmlns="http://www.w3.org/2000/svg" width="50.511" height="50.515" viewBox="0 0 50.511 50.515">
  <g id="Group_28025" data-name="Group 28025" transform="translate(0 0)">
    <rect id="Rectangle_11993" data-name="Rectangle 11993" width="50" height="50" transform="translate(0.165 0.131)" fill="#19aaed" opacity="0"/>
    <g id="Group_28012" data-name="Group 28012" transform="translate(0 0)">
      <path id="Path_90" data-name="Path 90" d="M502.3,47.809c.114-.389.211-.784.344-1.167.39-1.119.832-1.684,2.333-3.026a5.857,5.857,0,0,1-2.617-5.017,5.621,5.621,0,0,1,1.846-4.162,5.848,5.848,0,0,1,8.385.358,5.922,5.922,0,0,1-1.144,8.845,6.1,6.1,0,0,1,2.641,4.17c.853,0,1.7,0,2.553,0,.525,0,1.127.192,1.553-.006s.658-.777.987-1.181a11.32,11.32,0,0,1,4.592-3.312,5.876,5.876,0,0,1-2.043-5.558,5.631,5.631,0,0,1,2.1-3.569,5.868,5.868,0,0,1,7.92.521,5.933,5.933,0,0,1-.462,8.575c.122.062.228.126.341.172a10.764,10.764,0,0,1,4.952,4.067.611.611,0,0,0,.629.313c1.084-.039,2.17-.021,3.255-.025h.547a6.042,6.042,0,0,1,2.64-4.156,5.889,5.889,0,1,1,6.476-.014c.208.167.42.321.614.493A5.8,5.8,0,0,1,552.8,48.6c.015,3.452.006,6.9,0,10.358,0,.813-.364,1.179-1.173,1.179q-24.07,0-48.14.009a1.272,1.272,0,0,1-1.194-.7Zm9.854,6.9c-.551,0-1.057.012-1.563,0a3.447,3.447,0,0,1-3.353-3.345c-.02-.8-.011-1.611,0-2.416a.989.989,0,1,1,1.968,0c.008.723,0,1.446,0,2.169a1.5,1.5,0,0,0,1.633,1.618q3.3.005,6.607,0a1.485,1.485,0,1,0-.006-2.957c-1.331,0-2.662,0-3.993,0-.946,0-1.249-.308-1.287-1.268a3.785,3.785,0,0,0-1.46-2.95,3.937,3.937,0,0,0-6.414,2.985c-.04,3.089-.013,6.179-.011,9.269a2.5,2.5,0,0,0,.035.31h7.844Zm38.681,3.435v-.382c0-3.024.008-6.048,0-9.072a3.944,3.944,0,1,0-7.888-.078c-.023.814-.374,1.163-1.188,1.165-1.38,0-2.761,0-4.141,0a1.48,1.48,0,1,0,0,2.955q3.352.01,6.7,0a1.485,1.485,0,0,0,1.581-1.571c.008-.74,0-1.479,0-2.219a.99.99,0,1,1,1.969,0c.008.707,0,1.413,0,2.12a3.459,3.459,0,0,1-3.658,3.642h-1.247v3.432Zm-30.809-9.355a3.542,3.542,0,0,1,.716,3.915h13.634a3.544,3.544,0,0,1,.707-3.927,8.914,8.914,0,0,0-15.058.013m-5.865,9.342h26.769V54.74H514.16Zm13.365-23.266a3.893,3.893,0,1,0,3.874,3.895,3.888,3.888,0,0,0-3.874-3.895M508.2,42.59a3.894,3.894,0,1,0-3.867-3.9,3.877,3.877,0,0,0,3.867,3.9m38.7,0A3.894,3.894,0,1,0,543,38.718a3.878,3.878,0,0,0,3.892,3.872" transform="translate(-502.299 -9.633)" fill="#19aaed"/>
      <path id="Path_91" data-name="Path 91" d="M516.118,0c.07.041.141.081.21.124a.97.97,0,0,1,.469,1.139.945.945,0,0,1-.96.706c-.9.011-1.809,0-2.713.006A2.339,2.339,0,0,0,510.695,4.4q-.011,4.636,0,9.272a2.322,2.322,0,0,0,2.214,2.429c.813.076,1.12.416,1.126,1.25,0,.294,0,.589,0,.984a17.571,17.571,0,0,0,1.633-1.108,4.992,4.992,0,0,1,3.678-1.146c2.3.1,4.6.035,6.9.019a1.519,1.519,0,0,1,1.321.607c.515.659,1.073,1.283,1.648,1.965.568-.672,1.133-1.309,1.659-1.977a1.484,1.484,0,0,1,1.276-.594c2.927.013,5.853-.006,8.78.021a2.233,2.233,0,0,1,1.093.339c.929.575,1.823,1.211,2.812,1.878,0-.434-.006-.773,0-1.112a1.016,1.016,0,0,1,1-1.117,2.352,2.352,0,0,0,2.339-2.66q0-4.439,0-8.878a2.367,2.367,0,0,0-2.6-2.6h-20.42a3.369,3.369,0,0,1-.541-.014.94.94,0,0,1-.81-.7.937.937,0,0,1,.3-1.023c.095-.085.2-.16.3-.239h22a8.64,8.64,0,0,1,1.076.334,4.129,4.129,0,0,1,2.654,3.874c.055,3.221.031,6.443.01,9.665a4.291,4.291,0,0,1-2.886,3.97c-.138.049-.278.095-.447.152,0,.693-.009,1.382,0,2.071a1,1,0,0,1-1.657.876c-1.288-.881-2.577-1.76-3.881-2.617a1.49,1.49,0,0,0-.768-.237q-3.895-.025-7.79,0a1.062,1.062,0,0,0-.692.33c-.64.706-1.235,1.452-1.85,2.18-.666.788-1.241.792-1.9.015-.616-.727-1.24-1.447-1.837-2.191a.855.855,0,0,0-.747-.356c-2.449.013-4.9,0-7.347.017a1.405,1.405,0,0,0-.724.219c-1.249.822-2.483,1.665-3.716,2.51-.406.278-.808.531-1.315.265s-.547-.727-.534-1.227c.015-.606,0-1.214,0-1.851-.112-.044-.214-.086-.318-.123a4.3,4.3,0,0,1-3.023-4.268q-.006-4.561,0-9.122A4.308,4.308,0,0,1,512.2.091.763.763,0,0,0,512.37,0Z" transform="translate(-504.181 -0.005)" fill="#19aaed"/>
      <path id="Path_92" data-name="Path 92" d="M524.955,0c.233.271.564.507.676.822a.871.871,0,0,1-.6,1.082.968.968,0,0,1-1.182-.428.971.971,0,0,1,.219-1.24c.095-.083.2-.158.3-.237Z" transform="translate(-508.579 -0.005)" fill="#19aaed"/>
      <path id="Path_93" data-name="Path 93" d="M524.227,8.618a2.972,2.972,0,1,1-2.944,3.03,2.939,2.939,0,0,1,2.944-3.03m.013,3.918a.984.984,0,0,0,.982-.954.979.979,0,0,0-1.958-.006.983.983,0,0,0,.977.96" transform="translate(-507.866 -2.531)" fill="#19aaed"/>
      <path id="Path_94" data-name="Path 94" d="M539.764,11.561a2.96,2.96,0,1,1-5.919.045,2.96,2.96,0,1,1,5.919-.045m-2.978-.943a1,1,0,0,0-.96.98.98.98,0,0,0,1.958-.036,1,1,0,0,0-1-.943" transform="translate(-511.55 -2.531)" fill="#19aaed"/>
      <path id="Path_95" data-name="Path 95" d="M549.361,8.618a2.972,2.972,0,1,1-2.953,2.97,2.934,2.934,0,0,1,2.953-2.97m0,3.918a.984.984,0,0,0,.987-.949.979.979,0,0,0-1.958-.016.981.981,0,0,0,.972.965" transform="translate(-515.234 -2.531)" fill="#19aaed"/>
    </g>
  </g>
</svg>
