<svg xmlns="http://www.w3.org/2000/svg" width="50.511" height="50" viewBox="0 0 50.511 50">
  <g id="Group_28027" data-name="Group 28027" transform="translate(0 -0.129)">
    <rect id="Rectangle_11993" data-name="Rectangle 11993" width="50" height="50" transform="translate(0.166 0.129)" fill="#19aaed" opacity="0"/>
    <g id="Group_28009" data-name="Group 28009" transform="translate(0 5.521)">
      <path id="Path_99" data-name="Path 99" d="M235.423,55.592a1.349,1.349,0,0,1-1.342.7q-9.57-.024-19.139-.01c-.1,0-.2,0-.3,0a1,1,0,0,1-1.023-.98.98.98,0,0,1,1.014-.986c.805-.016,1.612,0,2.417,0h.576a12.616,12.616,0,0,0-.689-1.556,4.711,4.711,0,0,0-4.074-2.377c-1.807-.047-3.618-.034-5.426,0a4.841,4.841,0,0,0-4.632,3.936c.907,0,1.81,0,2.713,0,.725,0,1.175.371,1.187.965.013.611-.45,1.007-1.2,1.007q-9.694,0-19.386,0c-.87,0-1.231-.373-1.215-1.234a6.934,6.934,0,0,1,6.6-6.652c.471-.013.943,0,1.535,0-3.164-1.05-4.6-3.17-4.1-5.906a4.933,4.933,0,0,1,9.751.551,5.052,5.052,0,0,1-4.066,5.326,7.3,7.3,0,0,1,7.039,3.349c1.828-2.782,4.486-3.618,7.646-3.332a5.26,5.26,0,0,1-3.26-2.2,4.8,4.8,0,0,1-.709-3.816,4.934,4.934,0,0,1,9.727.646c.242,2.5-1.334,4.566-4.056,5.438a23.06,23.06,0,0,1,2.579.016,6.674,6.674,0,0,1,4.847,2.967c.054.077.113.151.2.27a7.241,7.241,0,0,1,7.045-3.319c-3.066-1.055-4.492-3.16-3.99-5.9a4.933,4.933,0,0,1,9.752.549,5.019,5.019,0,0,1-4.163,5.31c.8.042,1.489.029,2.164.124a6.848,6.848,0,0,1,5.872,5.756,2,2,0,0,0,.088.279Zm-34.868-1.306a4.6,4.6,0,0,0-3.871-3.793,32.956,32.956,0,0,0-5.8,0,4.6,4.6,0,0,0-3.865,3.792Zm19.212-.013h13.55a4.626,4.626,0,0,0-3.9-3.784,33.028,33.028,0,0,0-5.75,0,4.631,4.631,0,0,0-3.9,3.784M193.775,40.5a2.958,2.958,0,1,0,2.97,2.933,2.963,2.963,0,0,0-2.97-2.933m16.373,0a2.958,2.958,0,1,0,2.975,2.929,2.963,2.963,0,0,0-2.975-2.929m16.386,0a2.958,2.958,0,1,0,2.967,2.937,2.963,2.963,0,0,0-2.967-2.937" transform="translate(-184.911 -16.824)" fill="#19aaed"/>
      <path id="Path_100" data-name="Path 100" d="M221.92,26.7a4.407,4.407,0,0,1-.534-.211c-1.427-.743-2.858-1.479-4.267-2.253a1.023,1.023,0,0,0-1.125-.012c-1.409.775-2.844,1.5-4.264,2.257a1.1,1.1,0,0,1-1.25.041,1.066,1.066,0,0,1-.371-1.185c.3-1.648.554-3.3.857-4.949a.748.748,0,0,0-.257-.769c-1.2-1.148-2.376-2.318-3.571-3.468a1.039,1.039,0,0,1,.638-1.907c1.658-.232,3.314-.48,4.973-.7a.676.676,0,0,0,.579-.44c.731-1.506,1.482-3,2.215-4.507a1.1,1.1,0,0,1,.984-.77c.538-.008.806.342,1.022.785.733,1.5,1.487,3,2.215,4.506a.677.677,0,0,0,.588.426c1.675.227,3.348.475,5.022.712a1.028,1.028,0,0,1,.6,1.877c-1.217,1.175-2.421,2.365-3.642,3.536a.668.668,0,0,0-.214.691c.309,1.712.6,3.428.884,5.144a1,1,0,0,1-1.078,1.2m1.307-10.759c-1.281-.183-2.516-.373-3.753-.531a1.4,1.4,0,0,1-1.208-.864c-.465-1.014-.978-2.007-1.474-3.007-.069-.136-.152-.265-.266-.461A27.488,27.488,0,0,0,215.2,13.8a2.392,2.392,0,0,1-2.422,1.737,28.131,28.131,0,0,0-2.9.406l-.111.174a2.155,2.155,0,0,1,.421.254c.819.785,1.622,1.586,2.442,2.371a1.218,1.218,0,0,1,.4,1.238c-.135.609-.221,1.228-.324,1.843-.111.665-.216,1.33-.341,2.088,1.238-.65,2.378-1.231,3.5-1.846a1.278,1.278,0,0,1,1.347,0c.674.375,1.363.723,2.047,1.081.456.24.914.477,1.461.761-.236-1.385-.436-2.663-.676-3.935a1.205,1.205,0,0,1,.378-1.2q.7-.662,1.376-1.344c.469-.475.923-.964,1.425-1.489" transform="translate(-191.289 -7.823)" fill="#19aaed"/>
      <path id="Path_101" data-name="Path 101" d="M188.4,28.9c.2-1.2.411-2.5.656-3.786a.742.742,0,0,0-.254-.772c-.87-.825-1.718-1.674-2.582-2.506a1.026,1.026,0,0,1,.6-1.887c1.173-.151,2.34-.344,3.512-.5a.866.866,0,0,0,.763-.556c.5-1.087,1.055-2.152,1.578-3.229a1.018,1.018,0,0,1,1.942.006c.545,1.122,1.091,2.243,1.665,3.351a.78.78,0,0,0,.491.363c1.262.213,2.53.4,3.8.575a1.018,1.018,0,0,1,.915.709.985.985,0,0,1-.324,1.067c-.905.884-1.807,1.772-2.723,2.646a.672.672,0,0,0-.223.691c.229,1.21.43,2.424.64,3.638a1.02,1.02,0,0,1-1.57,1.147c-1.056-.566-2.128-1.1-3.174-1.687a.857.857,0,0,0-.942.012q-1.62.886-3.268,1.721a.989.989,0,0,1-1.5-1.007m9.894-7.269c-.781-.117-1.586-.262-2.4-.352a1.3,1.3,0,0,1-1.13-.812c-.342-.738-.717-1.461-1.126-2.287-.358.72-.717,1.326-.969,1.973a1.634,1.634,0,0,1-1.624,1.18,2.054,2.054,0,0,0-.294.031c-.6.093-1.2.187-1.749.274.585.623,1.135,1.233,1.714,1.814a1.3,1.3,0,0,1,.4,1.288c-.169.805-.28,1.621-.43,2.523.777-.406,1.474-.738,2.135-1.128a1.452,1.452,0,0,1,1.617-.01c.673.394,1.378.732,2.145,1.134-.148-.888-.247-1.685-.422-2.465a1.37,1.37,0,0,1,.459-1.407c.575-.556,1.107-1.158,1.67-1.755" transform="translate(-185.155 -9.914)" fill="#19aaed"/>
      <path id="Path_102" data-name="Path 102" d="M235.859,28.9c.2-1.2.413-2.5.657-3.785a.744.744,0,0,0-.254-.773c-.872-.825-1.718-1.676-2.582-2.508a1.025,1.025,0,0,1,.592-1.887c1.189-.153,2.371-.356,3.56-.5a.821.821,0,0,0,.713-.55c.5-1.069,1.046-2.12,1.559-3.184a1.029,1.029,0,0,1,1.986,0c.535,1.108,1.077,2.215,1.643,3.307a.78.78,0,0,0,.491.365c1.23.209,2.465.389,3.7.558a1.031,1.031,0,0,1,.587,1.9c-.876.844-1.737,1.7-2.619,2.54a.67.67,0,0,0-.223.691c.228,1.209.43,2.424.639,3.638a1.019,1.019,0,0,1-1.568,1.149c-1.086-.58-2.186-1.134-3.264-1.727a.692.692,0,0,0-.764.007q-1.665.907-3.355,1.766a.99.99,0,0,1-1.5-1m2.282-1.636c.819-.428,1.553-.79,2.265-1.191a1.31,1.31,0,0,1,1.395,0c.714.4,1.446.761,2.249,1.18-.137-.793-.214-1.512-.392-2.2a1.671,1.671,0,0,1,.624-1.866c.536-.457.991-1.011,1.514-1.555-.881-.129-1.724-.259-2.569-.375a1.119,1.119,0,0,1-.924-.646c-.143-.3-.287-.59-.433-.884-.243-.488-.488-.976-.775-1.548-.416.839-.792,1.566-1.137,2.307a1.265,1.265,0,0,1-1.093.787c-.82.095-1.633.241-2.422.361.612.643,1.192,1.267,1.791,1.874a1.213,1.213,0,0,1,.358,1.163c-.158.82-.288,1.646-.45,2.591" transform="translate(-199.069 -9.914)" fill="#19aaed"/>
      <path id="Path_103" data-name="Path 103" d="M220.21,60.861a.983.983,0,1,1-.961.98,1,1,0,0,1,.961-.98" transform="translate(-194.978 -23.372)" fill="#19aaed"/>
    </g>
  </g>
</svg>
