<svg xmlns="http://www.w3.org/2000/svg" width="76" height="76" viewBox="0 0 76 76">
  <g id="Group_28017" data-name="Group 28017" transform="translate(-387 -1043)">
    <rect id="Rectangle_11993" data-name="Rectangle 11993" width="76" height="76" transform="translate(387 1043)" fill="#fff" opacity="0"/>
    <g id="Group_28011" data-name="Group 28011" transform="translate(-213.396 -931.003)">
      <path id="Path_41" data-name="Path 41" d="M428.285,0c.372.117.75.221,1.117.353a5.954,5.954,0,0,1,3.918,5.359,7.9,7.9,0,0,1-.735,4.541c-.34.562-.761,1.077-1.174,1.652a10.615,10.615,0,0,1,6.373,8.872c1.021,0,2.028-.005,3.034,0,1.187.009,1.728.538,1.734,1.717q.014,2.745,0,5.49a1.5,1.5,0,0,1-1.683,1.695c-.465.007-.928,0-1.448,0-.095,1.465-.191,2.864-.272,4.265-.35,6.022-.688,12.044-1.052,18.066a.814.814,0,0,0,.627.955,5.8,5.8,0,0,1,3.816,5.491,15.455,15.455,0,0,1-.091,2.662,5.946,5.946,0,0,1-1.977,3.527,11.043,11.043,0,0,1,5.171,4.431,11.132,11.132,0,0,1,5.17-4.419c-.2-.215-.353-.4-.524-.565-2.25-2.193-2.313-8.351.954-10.44a5.945,5.945,0,0,1,6.184-.5,5.729,5.729,0,0,1,3.364,5.2,16.01,16.01,0,0,1-.082,2.738,5.756,5.756,0,0,1-1.867,3.441,33.666,33.666,0,0,1,3.022,2.114,10.11,10.11,0,0,1,3.392,6.253,2.843,2.843,0,0,0,.131.415v1.633A2.033,2.033,0,0,1,463.369,76q-35.982-.029-71.963-.015c-1.566,0-2.117-.545-1.981-2.129a10.493,10.493,0,0,1,5.931-8.881c.2-.1.4-.2.654-.32a2,2,0,0,0-.254-.329c-2.376-1.973-2.251-7.438-.533-9.48a6.22,6.22,0,0,1,6.6-2.043,5.965,5.965,0,0,1,4.212,5.52,8.128,8.128,0,0,1-.424,3.94c-.409.829-.958,1.591-1.48,2.442a11.015,11.015,0,0,1,5.01,4.369,11.113,11.113,0,0,1,5.181-4.433,5.6,5.6,0,0,1-1.955-3.457,14.383,14.383,0,0,1-.015-3.689,5.7,5.7,0,0,1,3.85-4.6.624.624,0,0,0,.5-.741q-.5-8.143-.962-16.289-.164-2.813-.332-5.627c-.01-.167-.03-.333-.05-.561-.557,0-1.072.016-1.585,0a1.445,1.445,0,0,1-1.526-1.547q-.027-2.893,0-5.786a1.446,1.446,0,0,1,1.585-1.562c1.036-.017,2.073,0,3.173,0a10.643,10.643,0,0,1,6.475-8.913c-2.132-1.93-2.289-4.38-1.9-6.885A5.673,5.673,0,0,1,426.17.137,2.7,2.7,0,0,0,426.5,0Zm11.264,23.8h-24.3v2.91c1.745,0,3.445,0,5.146,0,1.126,0,1.82.589,1.8,1.508-.016.893-.693,1.451-1.78,1.459-.679,0-1.359,0-2.046,0,0,.222-.005.321,0,.42q.644,11.032,1.277,22.066c.024.445.224.562.585.689a5.877,5.877,0,0,1,3.585,3.328,9.312,9.312,0,0,1,.356,5.038,5.86,5.86,0,0,1-1.953,3.43,11.077,11.077,0,0,1,5.171,4.418,10.984,10.984,0,0,1,5.051-4.381c-.489-.736-1.007-1.4-1.4-2.131a7.9,7.9,0,0,1-.542-4.14,5.292,5.292,0,0,1,3.139-5.072,2.4,2.4,0,0,0,1.6-2.728c0-.149.009-.3.017-.445q.419-7.255.839-14.512c.114-1.967.218-3.934.331-5.981-.8,0-1.533.015-2.269,0a1.482,1.482,0,1,1,.007-2.958c1.188-.018,2.374-.005,3.562-.005h1.821Zm-19.474-3.06h14.646a7.358,7.358,0,0,0-14.646,0M392.566,72.971H407.46a7.6,7.6,0,0,0-14.894,0m18.254,0h14.9a7.6,7.6,0,0,0-14.9,0m36.507,0h14.9a7.6,7.6,0,0,0-14.9,0m-18.25,0H443.97a7.6,7.6,0,0,0-14.893,0m-32.2-13.686.076.01c0,.3-.011.593,0,.889a3.061,3.061,0,0,0,6.117,0c.022-.592.023-1.186,0-1.778a3.054,3.054,0,0,0-5.935-.858,10.45,10.45,0,0,0-.256,1.742m24.5.046-.046,0c0-.272.007-.544,0-.816a3.062,3.062,0,0,0-6.123.005q-.024.815,0,1.63a3.06,3.06,0,0,0,6.009.722,9.809,9.809,0,0,0,.159-1.539m18.243-.021-.035,0c0-.271.008-.543,0-.814a3.061,3.061,0,0,0-6.12-.03c-.02.567-.02,1.136,0,1.7a3.064,3.064,0,0,0,6.039.615,9.907,9.907,0,0,0,.117-1.472m18.264.01-.045,0c0-.272.007-.543,0-.816a3.062,3.062,0,0,0-6.123.029c-.015.543-.016,1.087,0,1.63a3.06,3.06,0,0,0,6.012.7,9.927,9.927,0,0,0,.155-1.539M430.411,6.674l-.053-.005c0-.271.011-.543,0-.813a2.964,2.964,0,0,0-5.925.024c-.019.567-.026,1.136,0,1.7a2.985,2.985,0,0,0,2.674,2.8A2.921,2.921,0,0,0,430.228,8.2a11.041,11.041,0,0,0,.183-1.531" transform="translate(211 1974)" fill="#fff"/>
      <path id="Path_42" data-name="Path 42" d="M452.548,0c1.46.942,1.429,2.122-.079,3-1.047.607-2.092,1.218-3.146,1.813a1.492,1.492,0,1,1-1.484-2.562c1.27-.755,2.545-1.5,3.819-2.246Z" transform="translate(214.638 1974)" fill="#fff"/>
      <path id="Path_43" data-name="Path 43" d="M400.682,0c1.279.742,2.562,1.478,3.837,2.229a1.512,1.512,0,0,1,.722,2.174,1.52,1.52,0,0,1-2.21.385c-1.03-.585-2.055-1.18-3.078-1.778-1.515-.882-1.571-1.973-.161-3.01Z" transform="translate(211.593 1974)" fill="#fff"/>
      <path id="Path_44" data-name="Path 44" d="M399.029,15.532c-.692,0-1.384.018-2.075,0a1.478,1.478,0,1,1,0-2.954c1.408-.022,2.817-.024,4.224,0a1.476,1.476,0,1,1,0,2.952c-.716.027-1.432.005-2.149.005" transform="translate(211.38 1974.794)" fill="#fff"/>
      <path id="Path_45" data-name="Path 45" d="M405.608,24.712a4.979,4.979,0,0,1-.966,1.181c-1.156.753-2.371,1.418-3.579,2.089A1.451,1.451,0,0,1,399,27.489a1.435,1.435,0,0,1,.557-2.044c1.2-.727,2.419-1.439,3.656-2.107a1.618,1.618,0,0,1,2.392,1.374" transform="translate(211.593 1975.463)" fill="#fff"/>
      <path id="Path_46" data-name="Path 46" d="M453.394,15.533c-.691,0-1.383.015-2.074,0a1.482,1.482,0,1,1,0-2.958c1.382-.018,2.766-.021,4.148,0a1.478,1.478,0,1,1,0,2.955c-.691.021-1.383,0-2.074,0" transform="translate(214.817 1974.794)" fill="#fff"/>
      <path id="Path_47" data-name="Path 47" d="M448.6,23.133a3.633,3.633,0,0,1,.668.25q1.743.979,3.464,2a1.487,1.487,0,1,1-1.5,2.55c-1.2-.679-2.406-1.364-3.586-2.083a1.372,1.372,0,0,1-.654-1.659,1.488,1.488,0,0,1,1.608-1.057" transform="translate(214.638 1975.463)" fill="#fff"/>
      <path id="Path_48" data-name="Path 48" d="M425.19,28.09a1.479,1.479,0,1,1,1.51-1.411,1.494,1.494,0,0,1-1.51,1.411" transform="translate(213.172 1975.589)" fill="#fff"/>
    </g>
  </g>
</svg>
