<svg id="Group_28072" data-name="Group 28072" xmlns="http://www.w3.org/2000/svg" width="28" height="28" viewBox="0 0 28 28">
  <path id="Path_124" data-name="Path 124" d="M28,286.909a14,14,0,1,1-14-14,14,14,0,0,1,14,14" transform="translate(0 -272.909)" fill="#00d95f"/>
  <path id="Path_125" data-name="Path 125" d="M8.132,298.534l1.4-4.948a8.735,8.735,0,0,1-1.209-4.414,9.408,9.408,0,0,1,9.64-9.135,9.149,9.149,0,1,1,0,18.272A10.035,10.035,0,0,1,13.38,297.2Zm5.509-3.186.33.187a8.134,8.134,0,0,0,3.991,1.047,7.42,7.42,0,1,0,0-14.818,7.631,7.631,0,0,0-7.818,7.409,7.1,7.1,0,0,0,1.144,3.842l.2.316-.781,2.762Z" transform="translate(-3.869 -275.633)" fill="#fff"/>
  <path id="Path_126" data-name="Path 126" d="M21.363,290.977a1.531,1.531,0,0,0-1.3-.294c-.338.139-.555.669-.773.939a.324.324,0,0,1-.42.09,5.9,5.9,0,0,1-2.944-2.522.362.362,0,0,1,.045-.493,1.994,1.994,0,0,0,.535-.868,1.9,1.9,0,0,0-.239-1.029,2.43,2.43,0,0,0-.759-1.143,1.04,1.04,0,0,0-1.129.167,2.292,2.292,0,0,0-.795,1.816,2.547,2.547,0,0,0,.072.576,4.775,4.775,0,0,0,.552,1.274,10.03,10.03,0,0,0,.577.878,8.892,8.892,0,0,0,2.5,2.324,7.564,7.564,0,0,0,1.561.743,3.475,3.475,0,0,0,1.817.286,2.2,2.2,0,0,0,1.647-1.225,1.062,1.062,0,0,0,.077-.626c-.094-.431-.678-.687-1.026-.9" transform="translate(-3.378 -276.006)" fill="#fff" fill-rule="evenodd"/>
</svg>
