<svg xmlns="http://www.w3.org/2000/svg" xmlns:xlink="http://www.w3.org/1999/xlink" width="50.114" height="50.511" viewBox="0 0 50.114 50.511">
  <defs>
    <clipPath id="clip-path">
      <rect id="Rectangle_11994" data-name="Rectangle 11994" width="50.049" height="50.511" fill="#19aaed"/>
    </clipPath>
  </defs>
  <g id="Group_28004" data-name="Group 28004" transform="translate(-0.166)">
    <rect id="Rectangle_11993" data-name="Rectangle 11993" width="50" height="50" transform="translate(0.166 0.129)" fill="#fff" opacity="0"/>
    <g id="Group_28003" data-name="Group 28003" transform="translate(0.231)">
      <g id="Group_28002" data-name="Group 28002" clip-path="url(#clip-path)">
        <path id="Path_39" data-name="Path 39" d="M12.68,50.511C10.839,49.436,9,48.355,7.157,47.285,5.025,46.048,2.892,44.81.747,43.6A1.3,1.3,0,0,1,0,42.332q.021-6.687,0-13.375a1.274,1.274,0,0,1,.713-1.233c3.623-2.074,7.233-4.17,10.855-6.245a.761.761,0,0,0,.451-.766c-.016-4.146,0-8.291-.019-12.437a1.456,1.456,0,0,1,.817-1.429Q18.579,3.562,24.307.221A1.276,1.276,0,0,1,25.732.214q5.778,3.354,11.573,6.677a1.3,1.3,0,0,1,.735,1.278c-.024.674,0,1.349-.009,2.023a1.023,1.023,0,0,1-1,1.117c-.58,0-.958-.443-.972-1.129,0-.033,0-.066,0-.1-.016-.538.142-1.18-.1-1.587s-.876-.59-1.345-.86C31.558,5.865,28.494,4.1,25.442,2.323a.724.724,0,0,0-.844.008Q19.5,5.294,14.392,8.223a.723.723,0,0,0-.416.734q.02,5.872,0,11.746a.715.715,0,0,0,.421.732c1.089.6,2.16,1.235,3.341,1.915,0-.3,0-.5,0-.7.018-.821-.028-1.651.07-2.463a4.447,4.447,0,0,1,2.737-3.65c.131-.061.266-.116.44-.191A5.46,5.46,0,0,1,19.708,11.6a5.252,5.252,0,0,1,1.919-3.132,5.436,5.436,0,0,1,7.457,7.859c.1.052.2.1.294.149A4.614,4.614,0,0,1,32.3,20.832c.027.8,0,1.608,0,2.506.33-.183.6-.326.858-.476.855-.491,1.7-.994,2.566-1.471a.558.558,0,0,0,.336-.584c-.023-.476-.014-.954,0-1.431a.976.976,0,0,1,.953-1.043.99.99,0,0,1,1.009,1,14.551,14.551,0,0,1,0,1.48.592.592,0,0,0,.366.612c3.62,2.078,7.228,4.178,10.853,6.248a1.414,1.414,0,0,1,.8,1.385q-.029,6.588,0,13.177a1.45,1.45,0,0,1-.833,1.417c-3.91,2.233-7.805,4.493-11.7,6.745a1.2,1.2,0,0,0-.146.117h-.592Q31.1,47.233,25.425,43.948a.692.692,0,0,0-.8,0q-5.667,3.292-11.349,6.559ZM41.068,37.153c.167.076.329.147.49.222a4.483,4.483,0,0,1,2.683,3.48,15.508,15.508,0,0,1,.068,2.216c.006.337,0,.674,0,1.089.219-.113.348-.172.471-.243.969-.558,1.929-1.129,2.908-1.668a.647.647,0,0,0,.381-.658q-.016-5.945,0-11.892a.619.619,0,0,0-.35-.625Q42.545,26.1,37.387,23.108a.579.579,0,0,0-.672-.009q-5.179,3.008-10.375,5.988a.578.578,0,0,0-.337.579c.01,4,0,7.994.02,11.99a.729.729,0,0,0,.3.526c1.04.63,2.1,1.227,3.155,1.831a2.033,2.033,0,0,0,.284.1c0-.9-.028-1.756.006-2.609a4.513,4.513,0,0,1,2.386-3.943c.268-.155.558-.271.84-.407a5.446,5.446,0,1,1,8.072-.006M20.283,44.111a.726.726,0,0,0,.186-.036c1.111-.638,2.227-1.269,3.323-1.933a.693.693,0,0,0,.233-.518c.013-3.98.006-7.96.017-11.941a.613.613,0,0,0-.361-.614q-5.152-2.956-10.288-5.939a.647.647,0,0,0-.757,0Q7.5,26.112,2.348,29.066a.62.62,0,0,0-.373.613q.016,5.971,0,11.941a.617.617,0,0,0,.37.615c.947.529,1.88,1.081,2.82,1.623.161.093.33.174.58.305,0-.989-.027-1.874.006-2.756a4.455,4.455,0,0,1,2.161-3.722,10.539,10.539,0,0,1,1.048-.536,5.447,5.447,0,0,1,7.61-7.765,5.5,5.5,0,0,1,.472,7.764,1.425,1.425,0,0,0,.166.1,4.627,4.627,0,0,1,3.075,4.693c-.006.718,0,1.436,0,2.173m4.779-25.983c-.872,0-1.743,0-2.615,0a2.645,2.645,0,0,0-2.728,2.652c-.029,1.134-.017,2.269,0,3.4a.635.635,0,0,0,.264.456q2.376,1.4,4.78,2.76a.579.579,0,0,0,.483.016q2.425-1.369,4.825-2.781a.585.585,0,0,0,.246-.42c.018-1.167.044-2.336,0-3.5a2.632,2.632,0,0,0-2.741-2.585c-.839,0-1.678,0-2.516,0M13,38.954c-.822,0-1.645,0-2.467,0a2.634,2.634,0,0,0-2.821,2.795c-.009,1.052.008,2.1-.008,3.157a.607.607,0,0,0,.348.624c1.558.882,3.1,1.793,4.661,2.669a.731.731,0,0,0,.609-.01q2.364-1.327,4.694-2.71a.678.678,0,0,0,.28-.488q.036-1.7.008-3.4a2.631,2.631,0,0,0-2.64-2.632c-.888-.011-1.776,0-2.664,0m24.059,0c-.9,0-1.809-.011-2.714,0a2.622,2.622,0,0,0-2.6,2.567c-.025,1.167-.014,2.335,0,3.5a.578.578,0,0,0,.227.422q2.4,1.412,4.824,2.782a.578.578,0,0,0,.482,0q2.4-1.358,4.78-2.759a.633.633,0,0,0,.263-.456c.02-1.167.034-2.336,0-3.5a2.6,2.6,0,0,0-2.648-2.562c-.872-.009-1.743,0-2.615,0M25.043,9.244a3.452,3.452,0,1,0,3.433,3.469,3.456,3.456,0,0,0-3.433-3.469M33.6,33.481a3.451,3.451,0,0,0,6.9-.008,3.451,3.451,0,0,0-6.9.008m-17.147.013a3.44,3.44,0,0,0-3.427-3.468,3.447,3.447,0,1,0-.033,6.895,3.427,3.427,0,0,0,3.46-3.427" transform="translate(0 0)" fill="#19aaed"/>
        <path id="Path_40" data-name="Path 40" d="M73.285,29.14a.956.956,0,0,1,.944-.991.976.976,0,1,1,.034,1.952.965.965,0,0,1-.979-.961" transform="translate(-37.219 -14.296)" fill="#19aaed"/>
      </g>
    </g>
  </g>
</svg>
