<svg id="Group_28070" data-name="Group 28070" xmlns="http://www.w3.org/2000/svg" xmlns:xlink="http://www.w3.org/1999/xlink" width="28" height="28" viewBox="0 0 28 28">
  <defs>
    <linearGradient id="linear-gradient" x1="-0.166" y1="1.254" x2="0.928" y2="0.182" gradientUnits="objectBoundingBox">
      <stop offset="0" stop-color="#fbe18a"/>
      <stop offset="0.136" stop-color="#fbda7c"/>
      <stop offset="0.344" stop-color="#f75274"/>
      <stop offset="0.508" stop-color="#fbe18a"/>
      <stop offset="0.707" stop-color="#d53692"/>
      <stop offset="0.841" stop-color="#8f39ce"/>
      <stop offset="1" stop-color="#5b4fe9"/>
    </linearGradient>
  </defs>
  <path id="Path_129" data-name="Path 129" d="M28,286.909a14,14,0,1,1-14-14,14,14,0,0,1,14,14" transform="translate(0 -272.909)" fill="url(#linear-gradient)"/>
  <path id="Path_130" data-name="Path 130" d="M23.054,65.58a1.088,1.088,0,1,0,1.088,1.088,1.088,1.088,0,0,0-1.088-1.088" transform="translate(-4.751 -56.941)" fill="#fff"/>
  <path id="Path_131" data-name="Path 131" d="M17.24,67.14a4.572,4.572,0,1,0,4.572,4.572A4.577,4.577,0,0,0,17.24,67.14m0,7.5a2.929,2.929,0,1,1,2.929-2.929,2.932,2.932,0,0,1-2.929,2.929" transform="translate(-3.177 -57.712)" fill="#fff"/>
  <path id="Path_132" data-name="Path 132" d="M17.741,76.772H11.794A4.479,4.479,0,0,1,7.32,72.3V66.351a4.478,4.478,0,0,1,4.474-4.474h5.947a4.479,4.479,0,0,1,4.475,4.474V72.3a4.479,4.479,0,0,1-4.475,4.474M11.794,63.278a3.076,3.076,0,0,0-3.073,3.073V72.3a3.076,3.076,0,0,0,3.073,3.073h5.947A3.077,3.077,0,0,0,20.814,72.3V66.351a3.076,3.076,0,0,0-3.074-3.073Z" transform="translate(-0.768 -55.325)" fill="#fff"/>
</svg>
