<svg xmlns="http://www.w3.org/2000/svg" width="76" height="76" viewBox="0 0 76 76">
  <g id="Group_28021" data-name="Group 28021" transform="translate(-129 -1301)">
    <rect id="Rectangle_11993" data-name="Rectangle 11993" width="76" height="76" transform="translate(129 1301)" fill="#fff" opacity="0"/>
    <g id="Group_28014" data-name="Group 28014" transform="translate(-767.669 -680.414)">
      <path id="Path_76" data-name="Path 76" d="M685.74,39.34c.125-.55.231-1.107.38-1.651a11.7,11.7,0,0,1,6.415-7.728l.645-.311c-.137-.173-.248-.324-.37-.465a12.547,12.547,0,0,1-2.688-12.854,12.535,12.535,0,0,1,9.95-8.671,12.922,12.922,0,0,1,13.762,6.564,1.1,1.1,0,0,0,1.139.669q22.073-.023,44.148-.013c.223,0,.445,0,.668,0,1.267.021,1.8.553,1.8,1.82q.005,6.454,0,12.907V50.679c0,1.626-.423,2.044-2.074,2.044H712.26V81.057c0,.247.01.5-.013.741a1.473,1.473,0,0,1-1.6,1.481q-8.2.012-16.4,0a1.476,1.476,0,0,1-1.643-1.593q-.033-4.265,0-8.531a1.487,1.487,0,0,1,1.535-1.627,1.46,1.46,0,0,1,1.443,1.627c.017,2.076.007,4.154.007,6.231v.86h5.336v-.9q0-8.345,0-16.691c0-1.337.516-2.057,1.48-2.076.993-.02,1.521.7,1.521,2.1q0,8.27,0,16.543v1.021h5.288V55.522H695.585v1.842c0,1.211.013,2.423-.006,3.634-.015,1.041-.59,1.66-1.493,1.654a1.507,1.507,0,0,1-1.488-1.677c-.017-1.554,0-3.109,0-4.626a13.4,13.4,0,0,1-2.59.123,4.765,4.765,0,0,1-4.115-3.659c-.041-.14-.1-.276-.148-.414ZM713.037,28h1q6.267,0,12.537,0a11.385,11.385,0,0,1,1.259.057A4.905,4.905,0,0,1,726.77,37.8c-3.684.016-7.368,0-11.054.006a3.131,3.131,0,0,0-3.436,3.387c-.01,2.62,0,5.241,0,7.862,0,.211.031.423.047.633h46.242V17.919H715.227A13.41,13.41,0,0,1,713.037,28m-3.754,24.438c0-.348,0-.64,0-.931.007-3.635-.05-7.272.043-10.905a5.985,5.985,0,0,1,5.483-5.742c.614-.059,1.234-.064,1.852-.065,3.413-.006,6.827,0,10.24-.006A1.909,1.909,0,1,0,726.891,31q-8.162-.016-16.326.008a2.6,2.6,0,0,0-.958.29c-1.355.585-2.691,1.209-4.055,1.771-.49.2-1.26.111-1.494.442-.274.386-.114,1.089-.118,1.654-.01,1.385.021,2.771-.02,4.155a1.454,1.454,0,0,1-1.489,1.515,1.493,1.493,0,0,1-1.491-1.525c-.016-.222-.007-.444-.008-.667,0-1.559-.01-3.117.007-4.675,0-.411-.109-.583-.539-.7-1.255-.345-2.487-.776-3.733-1.161a1.64,1.64,0,0,0-.7-.106c-3.619.559-6.836,3.648-7.068,7.293-.262,4.138-.144,8.3-.15,12.453A1.763,1.763,0,0,0,690,53.424a1.89,1.89,0,0,0,2.577-1.8c.034-2.25,0-4.5.022-6.751a3.109,3.109,0,0,1,.2-1.151,1.422,1.422,0,0,1,1.614-.764,1.453,1.453,0,0,1,1.158,1.518c.019,2.375.009,4.749.01,7.124v.839Zm-6.841-21.982a10.018,10.018,0,1,0-10.025-9.966,10.017,10.017,0,0,0,10.025,9.966" transform="translate(211 1974)" fill="#fff"/>
      <path id="Path_77" data-name="Path 77" d="M714.017,76.94c-2.226-.947-2.786-1.8-2.786-4.236V68.182c0-3.554.871-5.255,3.792-7.347a8.008,8.008,0,0,1-1.494-6.686,7.72,7.72,0,0,1,2.92-4.59,7.966,7.966,0,0,1,10.224.367,8.075,8.075,0,0,1,1.014,10.882c.022.041.034.1.068.119a7.465,7.465,0,0,1,3.662,7.054c-.052,1.53-.085,3.068.009,4.594.131,2.141-.646,3.634-2.714,4.366h-1.336a5.874,5.874,0,0,0-2.98-.615q-3.184.082-6.372,0a5.018,5.018,0,0,0-2.67.615Zm10.53-3.633c0-1.247-.007-2.452,0-3.657a1.5,1.5,0,1,1,2.975.012c.008,1.162-.027,2.326.023,3.486.012.269.294.525.45.788.142-.247.4-.492.406-.741.031-2.027.039-4.055.007-6.082a4.148,4.148,0,0,0-2.849-3.863,1.786,1.786,0,0,0-1.117.028,8.34,8.34,0,0,1-6.222,0,1.8,1.8,0,0,0-1.119-.032,4.242,4.242,0,0,0-2.871,4.234c-.021,1.781-.016,3.561,0,5.341,0,.4-.208,1.061.429,1.078.673.017.432-.654.443-1.047.034-1.137-.012-2.276.03-3.412a1.47,1.47,0,0,1,1.437-1.5,1.507,1.507,0,0,1,1.535,1.488c.029.319.013.643.014.964,0,.958,0,1.916,0,2.917Zm1.792-17.432a5.008,5.008,0,1,0-4.983,5.026,5.033,5.033,0,0,0,4.983-5.026" transform="translate(215.078 1980.474)" fill="#fff"/>
      <path id="Path_78" data-name="Path 78" d="M734.749,76.941c-2.233-.922-2.8-1.783-2.8-4.225,0-1.582.032-3.166-.007-4.748a7.537,7.537,0,0,1,3.807-7.113,8.049,8.049,0,0,1-1.525-6.646,7.809,7.809,0,0,1,2.834-4.572,7.959,7.959,0,0,1,10.123.114c3.244,2.706,3.662,6.472,1.253,11.044a22.939,22.939,0,0,1,1.879,1.68,6.864,6.864,0,0,1,1.808,4.664c.02,2.028.01,4.055.007,6.084a3.419,3.419,0,0,1-2.514,3.588.753.753,0,0,0-.166.129h-1.485a4.445,4.445,0,0,0-2.352-.617c-2.312.055-4.627.049-6.939,0a4.741,4.741,0,0,0-2.582.614Zm10.514-3.625c0-1.273-.006-2.457,0-3.64.007-1.064.606-1.748,1.5-1.737s1.477.7,1.484,1.767c.008,1.161-.022,2.323.022,3.483.009.253.266.5.408.744.155-.234.443-.466.447-.7.034-2.05.051-4.1,0-6.151a4.173,4.173,0,0,0-2.879-3.843,1.686,1.686,0,0,0-1.051.023,8.31,8.31,0,0,1-6.284.014,1.769,1.769,0,0,0-1.117-.017,4.249,4.249,0,0,0-2.858,4.167c-.021,1.878-.024,3.756.015,5.633.006.3.264.826.434.836.544.036.412-.473.435-.821.013-.2,0-.4,0-.593,0-.988-.023-1.978.01-2.965a1.508,1.508,0,0,1,1.525-1.574,1.489,1.489,0,0,1,1.453,1.563c.024.543.007,1.087.008,1.631v2.185ZM742.054,60.9a5.021,5.021,0,1,0-5.033-4.99,5.051,5.051,0,0,0,5.033,4.99" transform="translate(218.391 1980.474)" fill="#fff"/>
      <path id="Path_79" data-name="Path 79" d="M694.668,59.139a1.522,1.522,0,0,1-1.5,1.523,1.6,1.6,0,0,1-1.509-1.544,1.539,1.539,0,0,1,1.51-1.521,1.571,1.571,0,0,1,1.5,1.542" transform="translate(211.946 1982.029)" fill="#fff"/>
      <path id="Path_80" data-name="Path 80" d="M738.977,36.611q-4.155,0-8.311,0c-1.492,0-1.957-.465-1.957-1.943q0-7.233,0-14.467c0-1.444.466-1.907,1.91-1.907q8.46,0,16.92,0c1.389,0,1.893.486,1.894,1.861q.01,7.308,0,14.616c0,1.331-.514,1.836-1.848,1.84-2.87.008-5.739,0-8.608,0m-7.241-10.692h14.652V21.306H731.736Zm14.657,3.1H731.745V33.6h14.647Z" transform="translate(217.874 1975.74)" fill="#fff"/>
      <path id="Path_81" data-name="Path 81" d="M736.518,42.792c-4.031,0-8.06.007-12.089,0-1.261,0-2.011-1-1.56-2.046a1.486,1.486,0,0,1,1.471-.93c1.087-.006,2.175,0,3.263,0q10.419,0,20.839.007a2.791,2.791,0,0,1,1.082.165,1.348,1.348,0,0,1,.82,1.575,1.364,1.364,0,0,1-1.221,1.209,4.877,4.877,0,0,1-.814.027q-5.9,0-11.79,0" transform="translate(216.919 1979.182)" fill="#fff"/>
      <path id="Path_82" data-name="Path 82" d="M738.831,35.929H747.5a5.823,5.823,0,0,1,.74.024,1.47,1.47,0,0,1,.346,2.812,2.835,2.835,0,0,1-.942.143q-8.785.012-17.569.006a4.353,4.353,0,0,1-.444-.01,1.481,1.481,0,0,1-1.434-1.572,1.422,1.422,0,0,1,1.511-1.4c3.04-.015,6.08-.006,9.119-.006Z" transform="translate(217.793 1978.562)" fill="#fff"/>
      <path id="Path_83" data-name="Path 83" d="M723.08,37.4a1.472,1.472,0,0,1,1.491-1.509,1.542,1.542,0,0,1,1.5,1.532,1.495,1.495,0,1,1-2.989-.023" transform="translate(216.974 1978.556)" fill="#fff"/>
    </g>
  </g>
</svg>
