<svg xmlns="http://www.w3.org/2000/svg" width="76" height="76" viewBox="0 0 76 76">
  <g id="Group_28026" data-name="Group 28026" transform="translate(-903 -1301)">
    <rect id="Rectangle_11993" data-name="Rectangle 11993" width="76" height="76" transform="translate(903 1301)" fill="#fff" opacity="0"/>
    <g id="Group_28008" data-name="Group 28008" transform="translate(607.933 -673.003)">
      <path id="Path_96" data-name="Path 96" d="M160.056,73.168v1.781A2.032,2.032,0,0,1,158.038,76q-20.365-.033-40.729-.015-15.69,0-31.381,0c-1.355,0-1.905-.547-1.845-1.9a13.319,13.319,0,0,1,5.23-10.29c.959-.757,2.057-1.335,3.109-2.006-.079-.111-.176-.251-.28-.386A37.979,37.979,0,0,1,115.441.587C116.851.355,118.272.2,119.688,0h4.748c.487.06.973.127,1.461.179a37.1,37.1,0,0,1,21.17,9.263A69.668,69.668,0,0,1,152.288,15a1.4,1.4,0,0,1,.019,1.9,1.425,1.425,0,0,1-1.744.386,3.741,3.741,0,0,1-.807-.742c-1.6-1.682-3.183-3.378-4.794-5.048a1.261,1.261,0,0,0-.758-.366,9.028,9.028,0,0,0-1.849.061,9.648,9.648,0,0,0-3.848,17.744c1.3.851,2.632,1.664,3.918,2.541a8.559,8.559,0,0,1,3.513,9.3,8.962,8.962,0,0,1-3.306,4.878,5.416,5.416,0,0,0-2.165,5.078,3.613,3.613,0,0,0,.552,1.061c1.953-2.185,4.179-3.1,6.859-2.489a6.69,6.69,0,0,1,5.093,5.125c.123-.216.187-.32.242-.428a35.082,35.082,0,0,0,2.608-25.356c-.313-1.142.075-1.967,1-2.191.874-.213,1.595.32,1.869,1.447.291,1.2.575,2.4.786,3.617.237,1.359.388,2.734.576,4.1v4.6a5.42,5.42,0,0,0-.123.644,36.425,36.425,0,0,1-4.416,15.08c-1.126,2.045-2.472,3.968-3.737,5.977.073.041.237.144.409.229a13.571,13.571,0,0,1,7.494,9.215c.152.594.25,1.2.373,1.8M140.9,8.419a34.9,34.9,0,0,0-25.487-4.8A33.648,33.648,0,0,0,96.88,13.827c1.056.1,2.087.062,3.115.1a7.853,7.853,0,0,1,7.232,5.425,7.754,7.754,0,0,1-2.617,8.654,14,14,0,0,0-4.842,6.827,14.009,14.009,0,0,1-8.875,8.844c-1.031.374-2.124.576-3.23.869a34.276,34.276,0,0,0,3.45,9.829A6.8,6.8,0,0,1,103,51.635l2.1-1.019c-1.7-1.77-2-3.9-1.88-6.164A6.679,6.679,0,0,1,114.779,40.2c2.344,2.373,2.326,7.52.432,9.785-.168.2-.318.42-.493.652l2.088,1c3.416-3.39,6.526-3.382,10.555-.007.671-.33,1.343-.659,2.024-.992a7.758,7.758,0,0,1-1.817-6.141,6.661,6.661,0,0,1,12.93-2c.088.248.186.493.283.751a5.62,5.62,0,0,0,.017-9.286c-1.44-1-2.959-1.887-4.4-2.887a12.576,12.576,0,0,1-1.584-19.334A13.123,13.123,0,0,1,140.9,8.419M87.245,41.489c.369-.051.711-.072,1.041-.147a11.4,11.4,0,0,0,8.837-7.9,15.2,15.2,0,0,1,5.318-7.49,4.959,4.959,0,0,0-3.049-9.079c-1.509-.012-3.016.021-4.524-.016a1.232,1.232,0,0,0-1.158.587,34.886,34.886,0,0,0-6.5,17.034,29.966,29.966,0,0,0,.031,7.009m-.063,31.495h21.05a10.526,10.526,0,0,0-9.951-9.146,10.644,10.644,0,0,0-11.1,9.146m45.386,0a10.613,10.613,0,0,0-21.026,0Zm24.328.009a10.578,10.578,0,0,0-11.031-9.165c-4.988.2-10.288,5.07-9.925,9.165Zm-39.588-11.3c-1.913-2-2.131-4.359-1.82-6.842a.621.621,0,0,0-.415-.736,10.633,10.633,0,0,0-10.359,0,.694.694,0,0,0-.411.808,20.843,20.843,0,0,1,0,3.027,6.609,6.609,0,0,1-1.792,3.762,14.056,14.056,0,0,1,7.385,6.567,14.1,14.1,0,0,1,7.415-6.582m24.334,0c-1.913-2-2.116-4.377-1.832-6.893a.711.711,0,0,0-.255-.583,10.484,10.484,0,0,0-10.6-.021.705.705,0,0,0-.309.556c.3,2.537.089,4.935-1.821,6.948a14.144,14.144,0,0,1,7.417,6.578,14.062,14.062,0,0,1,7.4-6.586m-47.62-5.3c0,.248-.009.494,0,.741A3.718,3.718,0,0,0,97.276,60.7a3.614,3.614,0,0,0,4.034-2.91,8.2,8.2,0,0,0,.073-2.431,3.675,3.675,0,0,0-4.718-3.109c-1.731.511-2.646,1.944-2.643,4.14m31.741.01c0-.222.006-.445,0-.668a3.723,3.723,0,0,0-3.36-3.625,3.647,3.647,0,0,0-3.957,3.026,8.488,8.488,0,0,0-.053,2.287,3.679,3.679,0,0,0,4.756,3.138c1.73-.531,2.619-1.941,2.616-4.158m24.34.023c0-.222.006-.444,0-.667a3.719,3.719,0,0,0-3.411-3.652,3.665,3.665,0,0,0-3.936,3.149,8.254,8.254,0,0,0-.005,2.289,3.678,3.678,0,0,0,4.926,2.957c1.611-.591,2.43-1.965,2.427-4.076M113.593,45.374c0-.247.01-.494,0-.741a3.69,3.69,0,0,0-3.343-3.55A3.581,3.581,0,0,0,106.3,44a8.276,8.276,0,0,0-.068,2.431,3.66,3.66,0,0,0,4.441,3.155c1.885-.4,2.924-1.9,2.919-4.215m24.339-.016c0-.247.01-.494,0-.741a3.687,3.687,0,0,0-3.357-3.535,3.582,3.582,0,0,0-3.936,2.938,8.234,8.234,0,0,0-.062,2.43,3.654,3.654,0,0,0,4.382,3.15c1.934-.392,2.98-1.882,2.975-4.241" transform="translate(211 1974)" fill="#fff"/>
      <path id="Path_97" data-name="Path 97" d="M150.644,19a1.479,1.479,0,1,1-.093,2.957A1.479,1.479,0,0,1,150.644,19" transform="translate(215.115 1975.201)" fill="#fff"/>
      <path id="Path_98" data-name="Path 98" d="M125.313,24.565a8.575,8.575,0,0,1-1.863,6.521,7.361,7.361,0,0,1-7.608,2.706,6.983,6.983,0,0,1-5.42-5.313,6.854,6.854,0,0,1,.549-5.039c.636-1.254,1.316-2.488,2.028-3.7a6.614,6.614,0,0,1,12.313,3.267c.01.519,0,1.038,0,1.558m-2.9.07-.069-.006c0-.519.008-1.038,0-1.557a3.641,3.641,0,0,0-2.618-3.479,3.569,3.569,0,0,0-4.114,1.579c-.725,1.2-1.408,2.44-2.03,3.7a4.216,4.216,0,0,0,1.151,5.159c2.574,2.132,6.62.616,7.434-2.825a18.212,18.212,0,0,0,.247-2.571" transform="translate(212.65 1975.042)" fill="#fff"/>
    </g>
  </g>
</svg>
