<svg xmlns="http://www.w3.org/2000/svg" width="76" height="76" viewBox="0 0 76 76">
  <g id="Group_28020" data-name="Group 28020" transform="translate(-1161 -1043)">
    <rect id="Rectangle_11993" data-name="Rectangle 11993" width="76" height="76" transform="translate(1161 1043)" fill="#fff" opacity="0"/>
    <g id="Group_28007" data-name="Group 28007" transform="translate(955.338 -931.002)">
      <path id="Path_64" data-name="Path 64" d="M40.827,0a10.9,10.9,0,0,1,1.494.622,4.3,4.3,0,0,1,2.213,3.865c.019,2.423,0,4.846,0,7.388h.877q8.98,0,17.96,0c1.465,0,1.949.488,1.949,1.964V61.7c0,1.512-.475,1.979-2.008,1.979H44.539v2.253c0,1.806.007,3.612,0,5.417A4.449,4.449,0,0,1,39.929,76Q22.265,76.007,4.6,76A4.434,4.434,0,0,1,0,71.416Q0,37.989,0,4.561A4.417,4.417,0,0,1,3.375.14,3.419,3.419,0,0,0,3.713,0H16.035c.88.6,1.18,1.168.983,1.865-.22.776-.794,1.1-1.944,1.1H5.131c-1.745,0-2.16.409-2.16,2.123V70.909c0,.222-.01.445.006.667A1.435,1.435,0,0,0,4.39,73.014c3.04.027,6.078.011,9.163.011-.038-.241-.062-.431-.1-.618a4.406,4.406,0,0,1,4.14-5.292c3.115-.066,6.234-.049,9.35,0A4.252,4.252,0,0,1,31.016,70.5a13.589,13.589,0,0,1,.026,2.52c3.031,0,6.071.018,9.11-.012a1.439,1.439,0,0,0,1.414-1.587c.016-1.632,0-3.265.005-4.9V63.68H11c-1.639,0-2.088-.439-2.088-2.048V13.922c0-1.586.452-2.045,2.016-2.045q14.88,0,29.759,0h.887V5.167c0-1.794-.4-2.2-2.163-2.2q-5.119,0-10.241,0a1.517,1.517,0,0,1-1.7-1.542A1.779,1.779,0,0,1,28.506,0ZM11.909,60.657H62.294V14.886H11.909ZM22.3,70.063c-1.431,0-2.863-.009-4.294,0a1.492,1.492,0,1,0,.02,2.962q4.258.011,8.515,0a1.493,1.493,0,1,0-.021-2.963c-1.407-.01-2.813,0-4.22,0" transform="translate(211 1974)" fill="#fff"/>
      <path id="Path_65" data-name="Path 65" d="M21.48,0c.118.082.238.162.354.247a1.405,1.405,0,0,1,.6,1.669,1.469,1.469,0,0,1-2.809,0A1.408,1.408,0,0,1,20.235.249c.116-.085.236-.165.354-.247Z" transform="translate(212.236 1974)" fill="#fff"/>
      <path id="Path_66" data-name="Path 66" d="M23.98,8.555c-.938,0-1.874.012-2.812,0a1.484,1.484,0,1,1-.029-2.959q2.848-.024,5.7,0a1.484,1.484,0,1,1,.03,2.959c-.961.018-1.923,0-2.886,0" transform="translate(212.236 1974.353)" fill="#fff"/>
      <path id="Path_67" data-name="Path 67" d="M15.443,5.591A1.479,1.479,0,1,1,13.97,7.038a1.5,1.5,0,0,1,1.473-1.447" transform="translate(211.883 1974.353)" fill="#fff"/>
      <path id="Path_68" data-name="Path 68" d="M22.209,26.07c.273.067.451.121.633.155A7.466,7.466,0,0,1,28.8,33.173a1.531,1.531,0,0,1-1.721,1.81q-5.676.011-11.354,0c-1.241,0-1.795-.6-1.75-1.854a7.458,7.458,0,0,1,5.927-6.9c.184-.037.369-.082.757-.17a4.805,4.805,0,0,1-3.006-2.024,4.317,4.317,0,0,1-.6-3.407,4.448,4.448,0,0,1,8.735.333c.377,2.216-.921,4.109-3.582,5.107m-4.961,5.909H25.5a4.286,4.286,0,0,0-3.983-2.928,4.371,4.371,0,0,0-4.268,2.928m5.618-10.328a1.48,1.48,0,1,0-1.542,1.454,1.5,1.5,0,0,0,1.542-1.454" transform="translate(211.883 1975.086)" fill="#fff"/>
      <path id="Path_69" data-name="Path 69" d="M22.264,46.034c.586.164,1.136.282,1.66.469A7.423,7.423,0,0,1,28.8,53.155a1.531,1.531,0,0,1-1.739,1.792q-5.678.01-11.355,0a1.531,1.531,0,0,1-1.733-1.8,7.454,7.454,0,0,1,5.948-6.957c.183-.037.366-.088.625-.151-2.714-1.09-3.966-2.947-3.552-5.175a4.449,4.449,0,0,1,8.769-.066c.451,2.25-.761,4.087-3.5,5.233m3.225,5.916a4.332,4.332,0,0,0-8.2,0ZM22.866,41.595a1.479,1.479,0,1,0-1.523,1.474,1.5,1.5,0,0,0,1.523-1.474" transform="translate(211.883 1976.348)" fill="#fff"/>
      <path id="Path_70" data-name="Path 70" d="M44.147,19.966h11.27a5.2,5.2,0,0,1,.74.02,1.476,1.476,0,0,1,.015,2.924,4.9,4.9,0,0,1-.74.022H32.745c-.173,0-.347.006-.519,0a1.481,1.481,0,1,1-.016-2.961c.221-.013.444,0,.667,0h11.27" transform="translate(212.942 1975.262)" fill="#fff"/>
      <path id="Path_71" data-name="Path 71" d="M44.082,42.9q-5.82,0-11.64,0a1.545,1.545,0,0,1-1.663-1.079A1.484,1.484,0,0,1,32,39.952a4.894,4.894,0,0,1,.74-.021H55.423c.2,0,.4-.009.593.007a1.492,1.492,0,0,1,1.42,1.437,1.464,1.464,0,0,1-1.417,1.51c-.889.039-1.78.014-2.669.014H44.082" transform="translate(212.942 1976.524)" fill="#fff"/>
      <path id="Path_72" data-name="Path 72" d="M41.1,28.519c-2.866,0-5.732.02-8.6-.02a2.456,2.456,0,0,1-1.339-.465,1.222,1.222,0,0,1-.347-1.482,1.4,1.4,0,0,1,1.342-.99c.938-.029,1.878-.012,2.816-.012H49.354c.222,0,.445-.01.667,0A1.493,1.493,0,0,1,51.5,27.01a1.469,1.469,0,0,1-1.507,1.5c-1.8.024-3.606.009-5.411.01H41.1" transform="translate(212.941 1975.615)" fill="#fff"/>
      <path id="Path_73" data-name="Path 73" d="M41.058,48.483q-4.225,0-8.449,0c-1.2,0-1.894-.558-1.883-1.5.01-.919.69-1.466,1.841-1.466q8.561,0,17.122,0c1.131,0,1.82.579,1.81,1.5s-.7,1.466-1.843,1.467q-4.3,0-8.6,0" transform="translate(212.942 1976.877)" fill="#fff"/>
      <path id="Path_74" data-name="Path 74" d="M38.219,31.135c1.852,0,3.7,0,5.556,0,1.089,0,1.764.556,1.785,1.447.023.919-.674,1.518-1.788,1.519q-5.63,0-11.261,0c-1.115,0-1.81-.6-1.785-1.523.023-.891.7-1.441,1.788-1.444,1.9,0,3.8,0,5.7,0" transform="translate(212.942 1975.968)" fill="#fff"/>
      <path id="Path_75" data-name="Path 75" d="M38.1,54.067c-1.877,0-3.753.006-5.63,0-1.069,0-1.746-.594-1.739-1.495s.68-1.469,1.761-1.469q5.666-.006,11.334,0c1.067,0,1.747.594,1.739,1.491s-.683,1.469-1.761,1.474c-1.9.006-3.8,0-5.7,0" transform="translate(212.942 1977.23)" fill="#fff"/>
    </g>
  </g>
</svg>
