<svg xmlns="http://www.w3.org/2000/svg" width="76" height="76.005" viewBox="0 0 76 76.005">
  <g id="Group_28025" data-name="Group 28025" transform="translate(-645 -1300.997)">
    <rect id="Rectangle_11993" data-name="Rectangle 11993" width="76" height="76" transform="translate(645 1301)" fill="#fff" opacity="0"/>
    <g id="Group_28012" data-name="Group 28012" transform="translate(-68.299 -673.008)">
      <path id="Path_90" data-name="Path 90" d="M502.3,55.364c.171-.586.317-1.18.518-1.756.587-1.684,1.252-2.534,3.51-4.553a8.813,8.813,0,0,1-3.938-7.549,8.457,8.457,0,0,1,2.778-6.262,8.8,8.8,0,0,1,12.617.538,8.911,8.911,0,0,1-1.722,13.308,9.174,9.174,0,0,1,3.974,6.274c1.283,0,2.563-.007,3.841,0,.79.006,1.7.288,2.337-.01s.99-1.17,1.484-1.777a17.033,17.033,0,0,1,6.909-4.983,8.842,8.842,0,0,1-3.074-8.362,8.473,8.473,0,0,1,3.166-5.37,8.828,8.828,0,0,1,11.917.784,8.926,8.926,0,0,1-.7,12.9c.183.094.342.189.513.259a16.2,16.2,0,0,1,7.451,6.12.919.919,0,0,0,.946.471c1.631-.058,3.265-.032,4.9-.037h.823a9.091,9.091,0,0,1,3.972-6.253,8.861,8.861,0,1,1,9.744-.021c.314.251.632.483.924.742a8.726,8.726,0,0,1,3.1,6.725c.022,5.195.01,10.389.005,15.585,0,1.223-.548,1.774-1.765,1.774q-36.216,0-72.431.014a1.914,1.914,0,0,1-1.8-1.051ZM517.126,65.75c-.828,0-1.59.018-2.351,0a5.186,5.186,0,0,1-5.045-5.033c-.03-1.211-.017-2.423-.005-3.635a1.488,1.488,0,1,1,2.961.006c.013,1.088,0,2.176,0,3.263a2.252,2.252,0,0,0,2.457,2.435q4.97.008,9.94,0a2.234,2.234,0,1,0-.008-4.449c-2-.005-4.006,0-6.008,0-1.423,0-1.879-.464-1.936-1.908a5.694,5.694,0,0,0-2.2-4.438,5.924,5.924,0,0,0-9.65,4.492c-.061,4.648-.019,9.3-.017,13.946a3.749,3.749,0,0,0,.052.466h11.8Zm58.2,5.168v-.574c0-4.55.013-9.1,0-13.649a5.935,5.935,0,1,0-11.868-.117c-.034,1.225-.562,1.75-1.787,1.753-2.077.006-4.155-.005-6.231.005a2.228,2.228,0,1,0,0,4.446q5.043.014,10.088,0a2.234,2.234,0,0,0,2.379-2.364c.012-1.113-.008-2.226.005-3.339a1.489,1.489,0,1,1,2.963.005c.013,1.063.006,2.127,0,3.19a5.2,5.2,0,0,1-5.5,5.48c-.631,0-1.261,0-1.876,0v5.164ZM528.969,56.843a5.329,5.329,0,0,1,1.077,5.89h20.515a5.332,5.332,0,0,1,1.064-5.909c-2.911-4.217-6.833-6.423-11.948-6.208a13.049,13.049,0,0,0-10.708,6.227M520.146,70.9h40.277V65.792H520.146Zm20.109-35.006a5.858,5.858,0,1,0,5.828,5.86,5.85,5.85,0,0,0-5.828-5.86M511.171,47.511a5.859,5.859,0,1,0-5.819-5.866,5.833,5.833,0,0,0,5.819,5.866m58.221,0a5.859,5.859,0,1,0-5.856-5.826,5.835,5.835,0,0,0,5.856,5.826" transform="translate(211 1976.08)" fill="#fff"/>
      <path id="Path_91" data-name="Path 91" d="M519.853,0c.105.062.213.121.316.186a1.46,1.46,0,0,1,.7,1.714,1.422,1.422,0,0,1-1.444,1.062c-1.361.016-2.721,0-4.082.009a3.519,3.519,0,0,0-3.655,3.644q-.016,6.975,0,13.951a3.494,3.494,0,0,0,3.33,3.655c1.223.115,1.684.626,1.694,1.881,0,.442,0,.886,0,1.48a26.434,26.434,0,0,0,2.456-1.667,7.51,7.51,0,0,1,5.534-1.724c3.457.144,6.925.053,10.388.029a2.285,2.285,0,0,1,1.987.913c.775.991,1.614,1.931,2.48,2.956.854-1.011,1.7-1.969,2.5-2.975a2.233,2.233,0,0,1,1.92-.893c4.4.019,8.807-.009,13.21.032a3.36,3.36,0,0,1,1.644.51c1.4.866,2.742,1.822,4.231,2.825,0-.653-.01-1.163,0-1.673a1.529,1.529,0,0,1,1.506-1.681c2.415-.3,3.519-1.558,3.519-4q0-6.678,0-13.358a3.561,3.561,0,0,0-3.919-3.906H533.448a5.07,5.07,0,0,1-.815-.021A1.414,1.414,0,0,1,531.415,1.9a1.41,1.41,0,0,1,.457-1.54c.142-.128.3-.24.449-.359h33.1a13,13,0,0,1,1.62.5,6.212,6.212,0,0,1,3.993,5.828c.083,4.846.047,9.695.015,14.542a6.456,6.456,0,0,1-4.343,5.974c-.208.073-.418.142-.672.229,0,1.042-.014,2.079.005,3.116a1.509,1.509,0,0,1-2.492,1.319c-1.937-1.325-3.877-2.649-5.839-3.938a2.242,2.242,0,0,0-1.155-.357q-5.86-.038-11.721.006a1.6,1.6,0,0,0-1.041.5c-.962,1.062-1.858,2.185-2.784,3.28-1,1.186-1.867,1.191-2.857.022-.926-1.094-1.866-2.178-2.764-3.3a1.287,1.287,0,0,0-1.124-.536c-3.685.02-7.369,0-11.054.026a2.115,2.115,0,0,0-1.089.33c-1.879,1.237-3.736,2.505-5.591,3.776-.61.418-1.215.8-1.979.4s-.823-1.094-.8-1.846c.022-.912.005-1.827.005-2.785-.169-.066-.322-.13-.478-.185a6.476,6.476,0,0,1-4.548-6.422q-.01-6.862,0-13.725A6.482,6.482,0,0,1,513.961.135a1.15,1.15,0,0,0,.251-.13Z" transform="translate(211.407 1974)" fill="#fff"/>
      <path id="Path_92" data-name="Path 92" d="M525.581,0c.351.408.849.763,1.018,1.237a1.311,1.311,0,0,1-.9,1.628,1.457,1.457,0,0,1-1.778-.643,1.461,1.461,0,0,1,.33-1.865c.143-.124.3-.238.445-.356Z" transform="translate(212.357 1974)" fill="#fff"/>
      <path id="Path_93" data-name="Path 93" d="M525.713,8.618a4.471,4.471,0,1,1-4.43,4.559,4.422,4.422,0,0,1,4.43-4.559m.019,5.9a1.48,1.48,0,0,0,1.477-1.436,1.474,1.474,0,0,0-2.947-.009,1.479,1.479,0,0,0,1.47,1.444" transform="translate(212.203 1974.546)" fill="#fff"/>
      <path id="Path_94" data-name="Path 94" d="M542.751,13.046a4.453,4.453,0,1,1-8.906.067,4.453,4.453,0,1,1,8.906-.067m-4.481-1.419a1.5,1.5,0,0,0-1.444,1.474,1.474,1.474,0,0,0,2.947-.054,1.5,1.5,0,0,0-1.5-1.42" transform="translate(212.999 1974.546)" fill="#fff"/>
      <path id="Path_95" data-name="Path 95" d="M550.852,8.618a4.471,4.471,0,1,1-4.444,4.469,4.414,4.414,0,0,1,4.444-4.469m0,5.9a1.481,1.481,0,0,0,1.484-1.428,1.474,1.474,0,0,0-2.947-.023,1.477,1.477,0,0,0,1.462,1.451" transform="translate(213.795 1974.546)" fill="#fff"/>
    </g>
  </g>
</svg>
