<svg xmlns="http://www.w3.org/2000/svg" width="76" height="76" viewBox="0 0 76 76">
  <g id="Group_28027" data-name="Group 28027" transform="translate(-1161 -1301)">
    <rect id="Rectangle_11993" data-name="Rectangle 11993" width="76" height="76" transform="translate(1161 1301)" fill="#19aaed" opacity="0"/>
    <g id="Group_28009" data-name="Group 28009" transform="translate(765.089 -672.515)">
      <path id="Path_99" data-name="Path 99" d="M260.911,64.2a2.029,2.029,0,0,1-2.02,1.054q-14.4-.037-28.8-.015c-.149,0-.3,0-.446,0a1.5,1.5,0,0,1-1.54-1.475,1.475,1.475,0,0,1,1.526-1.484c1.211-.023,2.425-.006,3.636-.007h.867a18.983,18.983,0,0,0-1.037-2.341,7.089,7.089,0,0,0-6.13-3.577c-2.719-.07-5.443-.051-8.163-.005a7.284,7.284,0,0,0-6.969,5.923c1.364,0,2.724,0,4.082,0,1.091,0,1.768.558,1.787,1.452.019.92-.676,1.514-1.8,1.515q-14.585,0-29.169,0c-1.309,0-1.853-.56-1.828-1.857a10.433,10.433,0,0,1,9.936-10.009c.709-.02,1.419,0,2.309,0-4.76-1.58-6.92-4.77-6.163-8.887a7.422,7.422,0,0,1,14.672.83,7.6,7.6,0,0,1-6.118,8.014c4.426-.274,8.028,1.188,10.59,5.039,2.75-4.186,6.749-5.444,11.5-5.013a7.914,7.914,0,0,1-4.9-3.308,7.222,7.222,0,0,1-1.067-5.742,7.424,7.424,0,0,1,14.635.972c.364,3.755-2.007,6.87-6.1,8.183a34.7,34.7,0,0,1,3.88.023,10.042,10.042,0,0,1,7.292,4.464c.082.116.17.227.305.406,2.546-3.822,6.15-5.314,10.6-4.994-4.612-1.587-6.759-4.754-6-8.871a7.422,7.422,0,0,1,14.673.825c.333,3.77-2.191,7.065-6.263,7.99,1.2.064,2.24.044,3.256.186a10.3,10.3,0,0,1,8.835,8.66,3.009,3.009,0,0,0,.133.42ZM208.449,62.24a6.92,6.92,0,0,0-5.824-5.707,49.586,49.586,0,0,0-8.724,0,6.918,6.918,0,0,0-5.815,5.706Zm28.907-.02h20.387a6.96,6.96,0,0,0-5.866-5.693,49.694,49.694,0,0,0-8.652,0,6.968,6.968,0,0,0-5.869,5.693M198.248,41.494a4.451,4.451,0,1,0,4.469,4.414,4.459,4.459,0,0,0-4.469-4.414m24.635,0A4.451,4.451,0,1,0,227.36,45.9a4.459,4.459,0,0,0-4.476-4.407m24.654,0A4.451,4.451,0,1,0,252,45.913a4.459,4.459,0,0,0-4.464-4.419" transform="translate(211 1975.95)" fill="#19aaed"/>
      <path id="Path_100" data-name="Path 100" d="M229.618,36.223a6.63,6.63,0,0,1-.8-.317c-2.147-1.118-4.3-2.225-6.42-3.389A1.539,1.539,0,0,0,220.7,32.5c-2.12,1.167-4.28,2.258-6.415,3.4a1.662,1.662,0,0,1-1.88.062,1.6,1.6,0,0,1-.558-1.784c.447-2.479.834-4.969,1.29-7.446a1.125,1.125,0,0,0-.387-1.157c-1.8-1.727-3.576-3.487-5.373-5.219a1.563,1.563,0,0,1,.96-2.869c2.494-.349,4.986-.722,7.482-1.058a1.017,1.017,0,0,0,.871-.662c1.1-2.266,2.23-4.517,3.332-6.781a1.657,1.657,0,0,1,1.48-1.158c.809-.012,1.213.515,1.538,1.18,1.1,2.264,2.238,4.512,3.333,6.78a1.018,1.018,0,0,0,.885.641c2.521.341,5.038.715,7.556,1.072a1.546,1.546,0,0,1,.9,2.824c-1.831,1.768-3.643,3.558-5.48,5.321a1.006,1.006,0,0,0-.322,1.039c.465,2.576.9,5.158,1.33,7.74a1.5,1.5,0,0,1-1.622,1.8m1.966-16.188c-1.928-.275-3.785-.56-5.647-.8a2.108,2.108,0,0,1-1.818-1.3c-.7-1.526-1.472-3.019-2.217-4.524-.1-.205-.229-.4-.4-.693a41.356,41.356,0,0,0-2,4.1,3.6,3.6,0,0,1-3.645,2.613,42.326,42.326,0,0,0-4.357.61c-.056.087-.112.174-.167.262a3.242,3.242,0,0,1,.633.383c1.233,1.182,2.441,2.387,3.674,3.567a1.832,1.832,0,0,1,.6,1.863c-.2.916-.332,1.848-.488,2.774-.167,1-.325,2-.513,3.142,1.863-.977,3.578-1.853,5.266-2.777a1.923,1.923,0,0,1,2.027-.005c1.015.565,2.05,1.088,3.08,1.627.686.361,1.375.718,2.2,1.145-.355-2.083-.656-4.007-1.018-5.921a1.813,1.813,0,0,1,.569-1.8q1.051-1,2.071-2.023c.705-.715,1.389-1.451,2.144-2.24" transform="translate(212.382 1974)" fill="#19aaed"/>
      <path id="Path_101" data-name="Path 101" d="M189.737,35.937c.307-1.8.618-3.755.987-5.7a1.117,1.117,0,0,0-.383-1.161c-1.309-1.241-2.584-2.519-3.885-3.771a1.543,1.543,0,0,1,.9-2.84c1.764-.228,3.52-.518,5.283-.749a1.3,1.3,0,0,0,1.149-.837c.756-1.636,1.587-3.237,2.375-4.858a1.531,1.531,0,0,1,2.923.009c.82,1.688,1.641,3.376,2.5,5.042a1.174,1.174,0,0,0,.739.547c1.9.321,3.807.6,5.715.866a1.532,1.532,0,0,1,1.377,1.067,1.482,1.482,0,0,1-.488,1.606c-1.362,1.33-2.718,2.666-4.1,3.981a1.011,1.011,0,0,0-.336,1.04c.345,1.821.648,3.648.962,5.474a1.534,1.534,0,0,1-2.362,1.726c-1.589-.852-3.2-1.658-4.775-2.538a1.29,1.29,0,0,0-1.417.018q-2.438,1.334-4.917,2.59a1.488,1.488,0,0,1-2.253-1.514M204.623,25c-1.175-.177-2.387-.395-3.607-.53a1.952,1.952,0,0,1-1.7-1.222c-.515-1.11-1.078-2.2-1.694-3.442-.539,1.083-1.078,2-1.458,2.969a2.459,2.459,0,0,1-2.443,1.775,3.09,3.09,0,0,0-.442.047c-.9.139-1.806.282-2.631.412.881.937,1.708,1.855,2.579,2.729a1.955,1.955,0,0,1,.6,1.938c-.254,1.211-.421,2.44-.648,3.8,1.169-.612,2.217-1.11,3.213-1.7a2.185,2.185,0,0,1,2.433-.015c1.012.592,2.073,1.1,3.227,1.706-.222-1.337-.371-2.535-.635-3.708a2.062,2.062,0,0,1,.69-2.117c.866-.837,1.665-1.743,2.513-2.641" transform="translate(211.053 1974.453)" fill="#19aaed"/>
      <path id="Path_102" data-name="Path 102" d="M237.2,35.938c.308-1.8.622-3.754.988-5.7a1.119,1.119,0,0,0-.382-1.162c-1.311-1.241-2.584-2.522-3.885-3.773a1.542,1.542,0,0,1,.891-2.838c1.789-.231,3.568-.536,5.357-.758a1.235,1.235,0,0,0,1.073-.827c.757-1.609,1.574-3.189,2.345-4.791a1.549,1.549,0,0,1,2.987.005c.805,1.668,1.62,3.332,2.473,4.975a1.174,1.174,0,0,0,.738.549c1.85.314,3.708.586,5.569.84a1.551,1.551,0,0,1,.884,2.854c-1.318,1.27-2.614,2.562-3.94,3.822a1.008,1.008,0,0,0-.336,1.04c.344,1.82.647,3.648.961,5.474a1.534,1.534,0,0,1-2.359,1.729c-1.634-.872-3.288-1.707-4.911-2.6a1.041,1.041,0,0,0-1.15.011q-2.5,1.364-5.048,2.657a1.49,1.49,0,0,1-2.255-1.511m3.434-2.462c1.233-.643,2.337-1.188,3.407-1.792a1.972,1.972,0,0,1,2.1.006c1.074.6,2.176,1.145,3.384,1.776-.206-1.193-.322-2.275-.59-3.316a2.514,2.514,0,0,1,.939-2.808c.807-.688,1.491-1.521,2.278-2.34-1.325-.195-2.594-.39-3.866-.564a1.684,1.684,0,0,1-1.39-.972c-.216-.445-.432-.888-.652-1.33-.366-.735-.735-1.469-1.167-2.329-.625,1.262-1.191,2.356-1.711,3.471a1.9,1.9,0,0,1-1.644,1.185c-1.234.143-2.458.363-3.644.543.921.967,1.794,1.907,2.695,2.819a1.826,1.826,0,0,1,.539,1.751c-.237,1.234-.433,2.476-.677,3.9" transform="translate(214.067 1974.453)" fill="#19aaed"/>
      <path id="Path_103" data-name="Path 103" d="M220.7,60.861a1.479,1.479,0,1,1-1.446,1.474,1.5,1.5,0,0,1,1.446-1.474" transform="translate(213.181 1977.368)" fill="#19aaed"/>
    </g>
  </g>
</svg>
