<svg xmlns="http://www.w3.org/2000/svg" width="76" height="76" viewBox="0 0 76 76">
  <g id="Group_28019" data-name="Group 28019" transform="translate(-903 -1043)">
    <rect id="Rectangle_11993" data-name="Rectangle 11993" width="76" height="76" transform="translate(903 1043)" fill="#19aaed" opacity="0"/>
    <g id="Group_28010" data-name="Group 28010" transform="translate(409.54 -931)">
      <path id="Path_104" data-name="Path 104" d="M316.757,0a3.26,3.26,0,0,1,2.257,3.705c-.058.543.275.643.667.784q16.105,5.762,32.209,11.53c1.37.489,2.354,1.251,2.454,2.806a2.953,2.953,0,0,1-2.249,3.1c-2.787,1-5.578,2-8.367,2.994q-11.991,4.3-23.986,8.576a.918.918,0,0,0-.736,1.048c.03,3.561.015,7.121.015,10.683v.817c.493,0,.906.014,1.318,0a4.9,4.9,0,0,1,4.986,2.662,4.8,4.8,0,0,1-.756,5.555,5.014,5.014,0,0,1,.017,6.751,5,5,0,0,1-1.63,7.888,5.455,5.455,0,0,1,.352,3.372,4.792,4.792,0,0,1-4.55,3.693c-4.7.034-9.4.078-14.1-.014a14.169,14.169,0,0,1-7.544-2.81c-1.6-1.067-3.065-2.33-4.611-3.478a2.042,2.042,0,0,0-.98-.376c-.638-.061-1.285,0-1.928-.024a2.936,2.936,0,0,1-3.026-3.069q-.022-7.975.027-15.951a2.763,2.763,0,0,1,2.92-2.964c1.866.15,2.979-.667,4.2-1.92a20.723,20.723,0,0,1,15.119-6.468c.171,0,.343-.016.627-.029V25.081c0-.248-.011-.5.014-.741a1.457,1.457,0,0,1,1.284-1.328,1.423,1.423,0,0,1,1.551.993,3.568,3.568,0,0,1,.114,1.022q.01,10.017,0,20.031v.929H316V3.021h-3.559V7.478c0,1.063.007,2.127,0,3.191s-.6,1.766-1.479,1.775-1.482-.678-1.484-1.749c-.006-2.275.076-4.555-.027-6.824A3.507,3.507,0,0,1,311.713,0Zm-27.17,66.306c.913,0,1.8.033,2.68-.01a2.544,2.544,0,0,1,1.79.709c1.757,1.395,3.507,2.814,5.376,4.05a11.72,11.72,0,0,0,6.937,1.977c3.706-.1,7.418-.027,11.127-.028.421,0,.843.022,1.261-.016a1.873,1.873,0,0,0,1.7-1.6,1.84,1.84,0,0,0-1.184-2.006,3.959,3.959,0,0,0-1.167-.14c-1.335-.018-2.672.016-4.006-.023a1.455,1.455,0,0,1-1.491-1.442,1.472,1.472,0,0,1,1.51-1.495c.592-.031,1.187-.013,1.78-.014,1.657,0,3.314.02,4.97-.01a1.847,1.847,0,0,0,2-2.115,1.884,1.884,0,0,0-2.03-1.653q-3.338-.022-6.677,0a1.506,1.506,0,0,1-1.55-.914c-.452-1.043.305-2.044,1.567-2.053,2.25-.015,4.5.007,6.751-.01a1.837,1.837,0,0,0,1.93-2.168,1.816,1.816,0,0,0-1.936-1.569c-2.2-.016-4.4,0-6.6-.009a1.59,1.59,0,0,1-1.7-1.04,1.473,1.473,0,0,1,1.529-1.919c2.225-.018,4.451.009,6.677-.013a1.888,1.888,0,0,0,2.018-2.3,1.931,1.931,0,0,0-2.111-1.48c-3.141-.01-6.281,0-9.422-.005-1.352,0-1.841-.488-1.846-1.821,0-1.533,0-3.066,0-4.6v-.721a17.9,17.9,0,0,0-5.687.735,18.79,18.79,0,0,0-9.315,6.3,2.953,2.953,0,0,1-2.777,1.291c-.677-.067-1.367-.012-2.1-.012Zm61.582-47.212c0-.057,0-.115,0-.171L319.089,7.431V30.588l32.081-11.494" transform="translate(211 1974)" fill="#19aaed"/>
      <path id="Path_105" data-name="Path 105" d="M309.557,15.3a1.466,1.466,0,1,1,.013,2.93,1.465,1.465,0,0,1-.013-2.93" transform="translate(212.361 1974.966)" fill="#19aaed"/>
    </g>
  </g>
</svg>
