<svg xmlns="http://www.w3.org/2000/svg" width="76" height="76" viewBox="0 0 76 76">
  <g id="Group_28018" data-name="Group 28018" transform="translate(-645 -1043)">
    <rect id="Rectangle_11993" data-name="Rectangle 11993" width="76" height="76" transform="translate(645 1043)" fill="#19aaed" opacity="0"/>
    <g id="Group_28016" data-name="Group 28016" transform="translate(-443.333 -931.01)">
      <path id="Path_59" data-name="Path 59" d="M890.982.01a12.357,12.357,0,0,1,1.454.508,5.407,5.407,0,0,1,3.326,4.875c.045,1.488-.214,2.983-.308,4.476a.815.815,0,0,0,.234.592A8.954,8.954,0,0,1,899,17.83c-.012.692.008,1.385-.005,2.077a1.477,1.477,0,0,1-1.6,1.631q-7.3.016-14.609,0a1.4,1.4,0,0,1-1.573-1.337,29.869,29.869,0,0,1,.213-4.724,8.278,8.278,0,0,1,3.416-5.278,10.575,10.575,0,0,1-.441-4.807A5.627,5.627,0,0,1,888.869.147,2.3,2.3,0,0,0,889.2.01Zm-6.8,18.524h11.772a5.856,5.856,0,0,0-2.562-5.982,5.861,5.861,0,0,1-6.673-.028,6.266,6.266,0,0,0-2.537,6.01m8.629-11.751h.062c-.022-.468-.012-.94-.072-1.4a2.719,2.719,0,0,0-2.742-2.4,2.67,2.67,0,0,0-2.671,2.384,14.884,14.884,0,0,0-.01,2.8,2.649,2.649,0,0,0,2.7,2.426,2.68,2.68,0,0,0,2.722-2.41,11.42,11.42,0,0,0,.01-1.4" transform="translate(211.002 1974)" fill="#19aaed"/>
      <path id="Path_60" data-name="Path 60" d="M920.523,65.518h14.844v-.86q0-14.175,0-28.349c0-2.262,1.157-3.41,3.43-3.412q1.78,0,3.562,0c2.226,0,3.4,1.16,3.4,3.368q0,14.213,0,28.424v.892a4.505,4.505,0,0,1,3.6,3.491,4.444,4.444,0,0,1-4.045,5.376c-.2.013-.4.011-.593.011q-29.388,0-58.777,0a4.5,4.5,0,0,1-4.589-3.261,4.454,4.454,0,0,1,2.94-5.431c.183-.061.37-.11.608-.18v-.9q0-18.367,0-36.735c0-2.372,1.129-3.505,3.489-3.506,1.261,0,2.523-.009,3.785,0a2.971,2.971,0,0,1,3.113,3.135q.014,6.2,0,12.394c0,1.077-.58,1.765-1.468,1.777-.909.013-1.5-.7-1.5-1.82q0-5.826,0-11.651v-.831h-4.4V65.518h4.4v-.786q0-5.232,0-10.464c0-.2-.007-.4,0-.593a1.459,1.459,0,0,1,1.5-1.5,1.433,1.433,0,0,1,1.463,1.53c.017,2.944.008,5.887.008,8.832v2.984h14.844v-.855q0-8.274,0-16.549a3.013,3.013,0,0,1,3.352-3.34q1.744,0,3.488,0c2.434,0,3.549,1.1,3.55,3.516v17.23Zm-5.183,3H886.262a5.942,5.942,0,0,0-.815.02,1.475,1.475,0,0,0-.026,2.922,4.768,4.768,0,0,0,.74.024q29.152,0,58.3,0c.2,0,.4.009.592-.006a1.478,1.478,0,0,0,.026-2.953c-.246-.02-.493-.009-.741-.009h-29m23.047-3.03h4.362V35.9h-4.362ZM917.5,47.8h-4.365V65.518H917.5Z" transform="translate(211 1975.55)" fill="#19aaed"/>
      <path id="Path_61" data-name="Path 61" d="M937.553,29.49c-2.374,0-4.747,0-7.122,0-1.227,0-1.81-.547-1.778-1.752a32.419,32.419,0,0,1,.26-4.425,7.913,7.913,0,0,1,2.968-4.823.68.68,0,0,0,.269-.861,10.559,10.559,0,0,1-.116-5.352,5.686,5.686,0,0,1,11.184.864,11.413,11.413,0,0,1-.289,4.63.692.692,0,0,0,.185.6,9.063,9.063,0,0,1,3.344,7.654c-.021.618.009,1.237-.006,1.855a1.491,1.491,0,0,1-1.63,1.607c-2.424.013-4.846,0-7.27,0m-5.895-3.02h11.8a6.141,6.141,0,0,0-2.555-6.006,5.871,5.871,0,0,1-6.682.019c-1.906,1.252-2.789,3.307-2.562,5.987m8.679-11.717c-.027-.49-.016-1.012-.091-1.523a2.688,2.688,0,0,0-2.67-2.3,2.637,2.637,0,0,0-2.715,2.322,14.545,14.545,0,0,0,0,2.95,2.623,2.623,0,0,0,2.7,2.332,2.682,2.682,0,0,0,2.7-2.351c.064-.462.055-.934.081-1.429" transform="translate(214.012 1974.504)" fill="#19aaed"/>
      <path id="Path_62" data-name="Path 62" d="M913.813,40.657q-3.524,0-7.047,0c-1.326,0-1.866-.52-1.843-1.838a29.37,29.37,0,0,1,.19-4.065,8.147,8.147,0,0,1,3.05-5.1.684.684,0,0,0,.255-.866,10.73,10.73,0,0,1-.077-5.5,5.689,5.689,0,0,1,11.144.957,11.547,11.547,0,0,1-.287,4.7.7.7,0,0,0,.2.6,9.035,9.035,0,0,1,3.334,7.585c-.017.543,0,1.088,0,1.632-.005,1.379-.507,1.892-1.868,1.894q-3.524,0-7.047,0m-5.852-3.01h11.763a6.157,6.157,0,0,0-2.543-6.02,5.858,5.858,0,0,1-6.672.029,5.935,5.935,0,0,0-2.548,5.992m3.071-11.772h.063a11.881,11.881,0,0,0,.008,1.4,2.684,2.684,0,0,0,2.712,2.42,2.642,2.642,0,0,0,2.712-2.409,14.864,14.864,0,0,0-.017-2.878,2.641,2.641,0,0,0-2.646-2.317,2.693,2.693,0,0,0-2.742,2.3c-.072.485-.063.983-.09,1.474" transform="translate(212.506 1975.213)" fill="#19aaed"/>
      <path id="Path_63" data-name="Path 63" d="M893.2,44.235a1.455,1.455,0,0,1,1.418,1.486,1.479,1.479,0,1,1-2.958-.048,1.459,1.459,0,0,1,1.541-1.438" transform="translate(211.664 1976.806)" fill="#19aaed"/>
    </g>
  </g>
</svg>
